<svg xmlns="http://www.w3.org/2000/svg" xmlns:xlink="http://www.w3.org/1999/xlink" width="1080" height="1080" viewBox="0 0 1080 1080">
  <defs>
    <clipPath id="clip-iteration">
      <rect width="1080" height="1080"/>
    </clipPath>
  </defs>
  <g id="iteration" clip-path="url(#clip-iteration)">
    <rect width="1080" height="1080" fill="#fff"/>
    <g id="Master_Doodles_Thinking" data-name="Master/Doodles/Thinking" transform="translate(-136 9.853)">
      <path id="Accent" d="M281.53,750.527q.252-86.165,3.211-172.317c1.439-42.55,3.283-85.13,6.851-127.561,1.413-16.809,3.056-33.633,5.642-50.308,1.6-10.325,3.074-21.573,7.431-31.187,1.427-3.146,2.8-5.192,5.838-6.8,11.221-5.956,26.6-6.831,38.967-8.088a504.022,504.022,0,0,1,61.193-2.234q-1.792,32.884-3.582,65.766-1.379,25.327-2.759,50.652c-.58,10.657-1.98,21.617-1.759,32.291.18,8.7,10.406,17.017,15.6,23.807q9.564-29.255,19.128-58.509c3.371,8.7,6.974,17.334,10.893,25.8a120.9,120.9,0,0,0,8.648,16.473c3.133,4.692,4.051,5.353,9.5,4.553,6.555-.963,11.532-2.907,15.407,1.965,3.435,4.32,6.633,8.726,10.36,12.826,41.157,45.266,104.58,73.377,163.346,86.095,34.613,7.489,69.53,13.57,104.129,21.207,52.827,11.66,107.087,23.157,157.542,43.087,7.907,3.123,15.9,6.479,23.115,11.023,7.955,5.01,13.636,12.59,19.141,20.1,13.45,18.339,29.217,48.419,8.473,67.56-15.9,14.674-40.751,16.148-61.411,17.8-21.355,1.708-42.786,2.541-64.195,3.237-58.313,1.895-116.681,2.3-175.02,2.36-53.3.041-106.614-.26-159.908-1.28-24.178-.462-47.476.1-70.87-6.106-47.88-12.7-95.624-25.914-143.387-39.042q-5.761-1.582-11.524-3.169" transform="translate(60.247 132.436)" fill="#ff5678" fill-rule="evenodd"/>
      <path id="Ink" d="M606.829,32c2.711.019,3.19,2.21,5.008,3.689a12.579,12.579,0,0,0,6.691,2.893c6.079,1.039,11.728.683,17.449,3.4,5.212,2.474,7.691,6.089,11.7,9.795,3.754,3.467,6.493,1.222,10.779,2.976,4.633,1.9,6.776,7.408,7.74,12.013l.08.392c1.1,5.569.015,7.446,3.621,11.372l.311.332a23.1,23.1,0,0,1,6.2,14.3c.426,5.095-.7,11.141-3.64,15.436-3.31,4.839-6.74,3.5-2.431,9.249,2.169,2.894,2.414,9.055,5.022,10.91,4.564,3.242,10.458-1.988,14.489-3.3,5.478-1.789,4.256,1.2,6.659,4.812,3.55,5.331,5.662-.17,10.5.9,1.78.392,2.3,2.313,2.928,2.544l.408.159c1.493.615-.364.292,1.982-.555,1.68-.605.529-3.863,3.912-2,2.352,1.294.581,3.594,1.65,5.26,2.1,3.275,5.218,1.366,6.77,5.592l.6,1.638a86.392,86.392,0,0,1,3.892,12.756c1.046,5.591-1.41,10.456-1.051,15.746.376,5.524,5.85,9.247,9.255,13.12,16.7,18.981,23.768,43.947,29.214,68.078,5.063,22.427-3.847,47.817-21.344,63.017-8.87,7.706-19.951,11.011-28.469,19.492l-.471.477c-3.222,3.317-3.073,4.557.957,7.366l.287.2c3.69,2.527,7.076,5.746,10.987,7.743A113.778,113.778,0,0,0,759.6,362.744c5.662,1.087,11.557.652,17.285.448,5.963-.212,12.693.634,18.522-.095,5.148-.643,9.221-4.8,14.611-4.358,2.113.173,3.408.98,5.558.789,2.824-.249,5.2-1.743,8.2-1.667l5.452.128c2.711.063,5.4.131,8.046.231,5.014.187,10.907-1.186,15.9-.32,4.735.822,10.367,5.08,14.486,7.563l3.959,2.381a102.933,102.933,0,0,1,11.76,7.96c4.294,3.535,7.323,9.16,10.673,13.549,3.542,4.644,7.641,8.792,11.2,13.414l1.337,1.746c13.614,17.874,27.6,39.591,31.843,61.773a51.913,51.913,0,0,1,.214,17.345c-.748,5.2-5.628,7.177-5.776,12.768-.293,11.009,4.831,23.725,8.008,34.281l.26.875a212.653,212.653,0,0,0,12.611,32.875c1.858,3.838,4.181,7.055,5.5,10.929l.267.841c1.53,5.2,3.86,10.137,5.564,15.384,14.742,45.388,37.6,87.639,54.253,132.338,8.952,24.019,18.419,47.832,28.179,71.545,4.8,11.674,10.007,22.99,15.229,34.486.687,1.51,1.175,4.422,2.371,5.461l.346.306c1.464,1.324.076.431,2.723.152,2.441-.257,4.974-1.37,7.438-1.783,5.944-1,12.033-1.169,18.028-1.76a129.738,129.738,0,0,1,19.847-.7c6.415.311,12.73-1.595,19.116-2.018,13.689-.906,27.188-.428,40.867-.172,10.659.2,24.306-1.068,34.169,3.881,9.881,4.957,6.472,16.374-1.907,20.722-10.041,5.211-21.859,5.954-31.837,11.264,7.114,2.189,14.772,1.763,22.06,3.257l2.131.474c4.9,1.06,11.772,2.026,15.239,5.384,3.589,3.477,3.225,9.465.857,13.543-2.95,5.076-8.623,5.953-13.729,7.713,2.3,3.049,5.877,2.811,7.947,6.828,2.75,5.343,1.031,11.052-2.337,15.671-7.309,10.029-21.782,10.876-33.082,12.306a177.707,177.707,0,0,1-33.94.981l-6.344-.421c-3.512-.241-7.008-.518-10.5-.949l-2.1-.278c-7.235-1.032-6.54,4.037-9.117,9.225-2.494,5.022-6.094,7.174-11.665,6.865l-3.056-.177a150.32,150.32,0,0,1-15.588-1.577c-5.705-.964-10.646-3.91-16.118-5.137a54.692,54.692,0,0,1-13.522-5.291c-5.373-2.75-8.231-7.353-12.934-10.513-4.827-3.244-9.878,1.852-14.625,4.389-11.537,6.164-24.2,8.89-36.816,11.92-12.867,3.091-25.4,7.046-38.485,9.185-6.09.994-11.875.861-17.936,1.507-6.985.745-13.04,3.413-20.173,3.427-25.192.052-50.546,4.6-75.749,5.441-24.95.833-50.3-1.232-75.227.44-12.743.856-25.076-.86-37.748-.2-13.072.682-26.607-.007-39.652-1.005-27.072-2.072-53.3-1.533-80.091-2.875a394.248,394.248,0,0,1-39.317-3.819l-2.585-.4c-13.491-2.169-28.758.33-38.3-11.407-1.049,4.6-1.336,9.372-4.7,13-3.536,3.815-9.233,5.355-13.967,7.093-12.088,4.436-24.308,8.649-36.479,12.859-10.255,3.548-20.569,7.358-30.9,10.73l-3.876,1.243c-12.222,3.845-23.85,8.505-35.866,13.019-10.888,4.089-22.168,7.32-32.66,12.251-4.328,2.033-8.861,2.2-13,4.1l-3.493,1.6a97.876,97.876,0,0,1-11.839,4.683c-4.7,1.451-8.992,2.494-13.536,4.38l-2.975,1.262c-4.069,1.7-8.864,3.34-12.607,1.365-3.31-1.745-4.61-5.755-5.628-9.1-1.275-4.187-.188-11.452-5.146-11.264-4.729.179-11.338,4.58-16.11,6.322l-.5.176c-5.745,1.915-11.626,5.116-17.543,6.2l-.782.136c-5.554.91-9.944.379-12.913-4.885-3.5-6.2-2.916-12.768-1.869-19.511-10.085-.024-19.425.923-29.6,1.268l-3.858.13a96.8,96.8,0,0,1-11.5-.181l-1.287-.128c-5.044-.556-12.542,1.025-16.917-1.283-8.893-4.694-7.569-17.972-3.084-25.233,2.491-4.031,6.4-6.749,10.363-9.2,4.976-3.066,8.624-6.542,12.982-10.448-2.842-1.958-6.538-1.007-9.325-3.34-2.165-1.81-3.512-4.83-4.5-7.406-1.842-4.8.532-15.823-3.625-18.544-2.22-1.452-6.152-.837-8.689-2a14.987,14.987,0,0,1-7.392-8.016c-3.362-7.87-.481-16.063,2.8-23.416l-1.291-.213c-12.364-1.98-29.48-3.24-32.914-17.142a26.241,26.241,0,0,1,.271-14.44c2.322-6.708,7.729-7.07,13.724-9.037,25.066-8.227,48.542-21.586,75.548-23.567,14.465-1.06,29.035-1.619,43.483-3.119,14.512-1.507,28.5-4.167,43.11-2.361,6.215.768,13.409.083,19.353,1.208,5.748,1.084,6.476,7.865,2.083,11.778-4.27,3.8-10.464,1.37-15.548,1.8-7.206.6-13.276,4.013-20,6.159a271.517,271.517,0,0,1-51.813,10.9c-9.242,1.015-17.97,1.151-27.017,3.616-8.218,2.24-16.351,4.784-24.6,6.927,9.01,2.409,26.463,2.141,29.462,13.118,1.41,5.165-.154,12.313-4.7,15.507-2.637,1.855-8.4,1.008-10.058,3.78,7.094.871,15.185-4.587,19.079,3.218,4.444,8.907.1,15.937-5.589,22.55,5.024-.833,10.189.116,15.263-.527,3.915-.5,7.572-1.676,11.292-.45,1.866.615,1.62,2.278,3.978,2.288,1.714.007,4.28-1.857,5.768-2.575,5.653-2.729,11.39-4.949,17.232-7.227a164.661,164.661,0,0,1,20.961-6.641c9.8-2.4,19.632-8.573,29.19-12.061l2.371-.853c3.518-1.288,7.262-2.93,8.9-6.356,2.076-4.349.485-10.718.358-15.318-.361-12.941-.206-25.9-.127-38.844.066-10.886.328-21.568,1.3-32.411,1.158-12.976.122-25.906.618-38.9.457-11.934-.614-23.84-.288-35.77.363-13.29,1.028-26.532,1.165-39.838.245-23.9,1.049-47.773,1.512-71.668a376.676,376.676,0,0,1,8.323-73.1,203.319,203.319,0,0,1,9.509-31.915c1.3-3.235,2.653-3.419-.461-5.268-1.847-1.1-4.127.129-5.939.372a55.707,55.707,0,0,1-11.087.506c-21.431-1.256-43.594-.321-65,1.539l-2.376.21c-10.365.935-20.781,1.831-31.19,2.3l-3.469.141c-11.532.41-23.065,2.2-34.6,1.353-19.325-1.415-41.366.8-57.928-11.651-17.673-13.28-16.009-36.81-4.6-53.811,12.594-18.762,33.63-29.452,51.2-42.6,16.718-12.513,36.278-21.795,54.6-31.82l1.769-.973c39.434-21.8,81.747-42.008,124.2-57.288l10.962-3.916c40.981-14.713,82.284-30.2,126.812-27.758l11.435.708c21.619,1.39,44.535,3.572,63.132,14.774,11.476,6.914,22.586,14.123,32.445,23.256,4.645,4.3,8.738,9.605,13.685,13.536,4.6,3.655,9.106,1.152,14.359-.191l-11.165-36.028a23.282,23.282,0,0,1-18.892,4.094c-8.112-1.712-7.455-5.178-6.729-12.119.339-3.22,1.217-2.67-1.577-4.7-2.291-1.668-6.477-2.214-9.115-3.659-6.579-3.6-12.282-8.9-14.707-16.163-2.411-7.225-.7-13.928.875-21.1,1.9-8.624-2.793-5.018-8.154-9.028-2.359-1.765-3.2-3.3-2.8-6.212.331-2.366,5.007-5.772,4.8-8.1-.253-2.807-1.816-2.493-4.036-4.185a15.361,15.361,0,0,1-5.293-7.1c-2.235-6.081,2.162-9.892,4.189-15.415l.521-1.49a21.237,21.237,0,0,1,3.36-6.412c3.208-4.037,4.506-4.06,8.811-4.024l.366,0c3.521.027,3.806-.232,6.008-2.911l.723-.878a48.507,48.507,0,0,0,3.221-4.184l.318-.47c1.355-1.955,1.676-1.861.2-3.507l-.171-.19c-5.447-6.029-7.931,3.384-12.768,2.815-5.6-.658-6.6-9.53-10.107-12.494-2.455-2.074-5.256-1.284-7.94-2.685-3.283-1.712-3.942-4.977-6.073-7.713-3.459-4.44-8.48-5.223-10.787-10.857-1.309-3.2-1.489-6.489-1.755-9.878-.38-4.826-1.643-8.641-3.047-13.235a14.254,14.254,0,0,1,1.007-11.925l.242-.458c2.233-4.136,2.632-5.717,2.189-9.96l-.112-.989c-.459-3.815-.6-7.2,1.39-10.6a22.594,22.594,0,0,0,3.2-9.228l.09-.532c.609-3.664,1.773-6.3,5.315-7.822,2.414-1.036,5.027.117,6.732-2.243s1.247-6.13,2.995-8.733c2.851-4.246,7.138-4.911,11.807-5.868,3.3-11.306,9.474-12.142,17.77-4.019l.834-1.887C602.161,34.863,603.769,31.979,606.829,32ZM348.2,898.281c-4.94.467-8.464,4.262-12.33,6.967A158.624,158.624,0,0,1,320,914.677c-5.717,3.075-12.085,4.617-17.727,7.616-4.685,2.489-9.286,4.918-14.116,7.2l-10.942,5.167c-21.767,10.309-42.807,20.7-62.643,35.159,7.463,2.271,15.953.007,23.369-.793,10.541-1.14,21.044-2,31.481-3.948,6.107-1.141,18.027-5.5,23.858-2.149,5.124,2.941,4.731,10.492,5.466,15.543l5.8-2.249c2.9-1.123,5.805-2.233,8.733-3.285,3.838-1.379,10.065-5.169,13.976-5.3,10.895-.369,9.7,14.92,8.644,21.937,6.366-2.162,12.419-3.671,18.59-6.349,4.946-2.148,10.408-2.621,15.213-5.182,11.938-6.363,25.184-10.35,37.967-14.867,14.421-5.1,28.811-10.29,43.11-15.728,5.877-2.235,11.672-5.186,17.685-7,6.473-1.953,13.1-3.42,19.308-6.261l-1.952-.893c-5.807-2.684-11.207-5.37-17.541-6.664-5.079-1.039-9.44-3.893-14.544-4.823l-7.48-1.345c-8.569-1.55-17.363-3.277-25.464-6.078l-1.422-.506c-11.629-4.253-24.292-5.776-36.211-9.311a71.153,71.153,0,0,0-17.058-3.218C360.189,901.021,354.11,897.724,348.2,898.281ZM542.924,649.515c-.853,11.573-11.926,16.944-18.748,5.937-2.162.834-1.612,11.163-1.809,13.226-.584,6.178-1.224,12.348-1.775,18.529-1.27,14.268-2.226,28.568-3.006,42.871l-.549,9.909c-.605,11.016-1.144,22.051-1.108,33.073.021,6.1.294,12.194.171,18.294-.092,4.56-2.1,13.092,1.793,16.332,2.52,2.1,7.374,1.259,10.451,1.017l.323-.023c6.026-.394,12.068-.8,18.11-.843,6.979-.054,13.911.7,20.894.515,2.68-.069,5.672-.516,8.324-.011,1.922.369,4.019,2.026,5.821,2.1,1.326.054,3.042-1.263,4.508-1.522,2.282-.4,4.96.064,7.282.035,1.652-.02,5.633-.766,7.152.209,1.48.95.911,3.115,2.264,3.594.515.182,3.453-3.307,3.956-3.528,2.25-.981,5.53-.218,7.9-.191,6.827.076,13.658-.355,20.487-.29a174.178,174.178,0,0,1,19.468,1.611c4.225.512,9.076-.771,13.562-1.147a193.379,193.379,0,0,1,19.763-.38l9.016.173q1.8.036,3.609.08a16.921,16.921,0,0,1,3.37-.065c3.2.961,1.344,1.047,3.331,2.417l.2.136-.139-.1c-2.557-1.923,7.034-3.169,7.6-3.173,4.511-.034,8.644,2.182,12.4,1.748,4.067-.47,8.218-2.982,12.692-2.2,2.091.365,3.828,2.7,5.382,2.972,2.511.434,3.37-1.38,5.673-2.288,4.6-1.813,9.928-.233,14.725-.547,6.735-.44,13.219-.455,19.98-.546l10.572-.141c8.81-.112,17.619-.191,26.431-.105,11.358.11,20.484,4.665,31.781,4.417,5.925-.129,11.95-.646,17.866-.5,5.08.12,7.675,3.907,3.835,8.355-2.6,3.008-7.364,3.326-11.025,3.876-5.434.819-10.77,2-16.186,2.9-12.877,2.158-26.355,2.091-39.381,2.483-51.079,1.538-102.168,5.963-153.277,6.745l-6.133.076c-23.339.219-46.929,2.185-70.194,1.268-12.979-.512-25.667,2.278-38.746.273-5.515-.846-10.936-1.359-16.5-1.756l-.28-.031c-1.188-.159-4.763-.808-5.492-.476l-.589.26c-1.545.663-.553.1-1.451,2.572-1.565,4.319-1,11.106-.946,15.88l0,.586c.017,7.634.389,15.284.645,22.914.2,5.848.5,11.693.832,17.536l.257,4.382c.18,3.022-1.01,14.383,1.321,16.636,1.75,1.694,9.747.965,12.3.475l1.664-.354a9.858,9.858,0,0,1,3.658-.165l.852.094a16.347,16.347,0,0,0,4.232.054l.92-.1a74,74,0,0,1,18.684.158l1.057.177c4.884.878,10.014-1.439,11.883,3.7l.421-.5c2.741-3.164,2.829-1.1,6.14-.362,3.577.8,2.482-1.512,5.513-1.83,2.136-.223,4.043,1.465,6.353,1.48,3.816.024,7.25-.984,11.33-.475l4.92.606c16.419,1.994,33.02,3.678,49.537,3.829,7.538.071,14.987.187,22.484.416,3.825.116,7.442.515,11.2.966,3.545.427,6.33-.426,10.015-.612,8.149-.416,16.7.826,24.848,1.271,3.832.209,8.631-.45,12.306.054,3.693.5,3.972,3.31,6.909,4.936.464-9.1,19.5-3.272,24.452-3.261,1.946.006,4.323-.823,6.671-.673,3.887.25,7.8.314,11.694.451l4.923.184a87.763,87.763,0,0,0,12-.206l1.181-.136c7.7-.981,16.07.065,23.851.017,8.473-.054,16.947-.168,25.415-.445,8.58-.281,17.145-.806,25.723-1.082,7.452-.24,15.357.361,22.7-.185,1.9-.141,3.726-1.537,5.428-1.609,2.36-.1,5,.913,7.726.68,8.584-.732,16.583-.853,25.259-.823,14.884.051,30.347-2.7,44.617-6.64,6.578-1.817,13.415-1.916,19.946-3.865,7.539-2.251,14.444-6.175,21.382-9.806l.55-.28c5.382-2.66,12.45-4.128,10.311-11.082-2.361-7.679-6.133-15.125-8.943-22.669l-.463-1.267c-2.2-6.11-3.88-12-8.835-16.614-5.234-4.875-11.921-8.149-17.5-12.644-12.155-9.8-24.842-15.654-39.235-21.456-14.508-5.848-27.742-14.472-42.982-18.361-14.151-3.611-27.785-8.453-41.65-12.153-15.171-4.048-30.815-5.516-46.116-9.115-14.664-3.45-29.062-8.523-43.92-11.151-16.076-2.841-32.3-4.3-48.316-7.77-13.579-2.938-26.533-8.695-40.183-10.991-3.987-.672-8.3-1.082-12.157-2.334-3.608-1.172-6.19-3.545-9.839-4.506a146.913,146.913,0,0,1-23.714-8.849c-3.353-1.517-5.211-3.381-8.116-5.261-3.466-2.241-7.9-3.037-11.794-4.273l-2.042-.649c-6.8-2.171-13.525-4.45-19.636-8.249a216.842,216.842,0,0,1-19.783-14.284c-2.716-2.142-5.621-4.293-8.4-6.3-3.43-2.467-6.95-2.914-10.794-4.526C559.309,680.231,552.007,663.807,542.924,649.515Zm283.8-168.287c2.617,19.157,3.584,41.6,11.219,59.566,6.92,16.295,12.42,38.62,5.424,55.92-3.364,8.32-8.686,15.425-12.688,23.351-4.475,8.861-7.391,19.035-10.39,28.478-6,18.878-7.911,38.7-11.777,58.046l-.422,2.071a64.879,64.879,0,0,0-.331,27.969c.608,3.321-.465,5.961,2.332,8.091,2.814,2.142,9.321,2.575,12.8,3.8,10.133,3.582,18.9,6.248,29.476,7.538l1.331.154a139.171,139.171,0,0,1,29.094,6.227l1.436.485c18.122,6.232,36.966,10.889,54.772,17.136,9.74,3.418,19.133,9.506,28.5,13.873,9.74,4.543,20.071,7.511,29.253,13.181,9.891,6.106,19.671,13.2,29.043,20.042,8.475,6.189,12.642,13.847,16.2,23.387l.259.7c6.871,18.758,24.193,43.1,8.193,62.029,5.609,2.438,12.029,3.406,17.4,6.012,1.855.9,2.408,1.779,4.518,2.3,2.759.677,6.309.136,9.134.32,4.086.266,12.7,3.206,16.682,2.018,3.724-1.111,3.887-6.514,6.562-9.181,3.968-3.953,7.776-1.4,12.63-1.844,7.19-.652,14.353-1.595,21.548-2.223,14.516-1.266,28.991-1.564,43.555-1.53-7.582-8.415-35.464,6.9-36.148-8.343-.793-17.638,20.735-12.347,31.2-17.434-9.512.28-19.024.372-28.517,1.125l-.614.055c-5.9.582-16.334,2.942-19.48-3.17-3.5-6.807,2.132-14.68,7.408-18.235,7.3-4.918,15.738-8.054,23.814-11.418-.25-1.837-39.176,1.676-43.6,1.22-7.556-.778-15.6,1.291-23.413,1.027-6.906-.235-16.867-2.917-22.569.435-2.114,1.243-2.166,2.711-5.5,2.077-3.1-.588-6.367-2.78-8.689-4.812-6.245-5.465-10.142-13.958-14.212-21.14l-.422-.738c-8.457-14.672-15.7-29.873-22.718-45.3-14.458-31.779-28.369-63.74-42.811-95.526-7.143-15.722-14.031-31.472-21.736-46.9l-2-4.021c-2.464-4.989-4.951-10.217-6.908-15.3l-.52-1.384c-2.759-7.524-6.386-14.587-8.859-22.3-5.242-16.336-11.506-32.428-15.518-49.228-1.017-4.253-1.394-8.707-2.619-12.9-1.307-4.478-3.975-8.307-5.647-12.642-1.705-4.417-1.709-8.359-2.558-12.874-.847-4.5-2.914-8.885-4.4-13.2-7.239,4.366-15.427,8.36-22.257,13.418l-2.14,1.625c-6.869,5.1-15.983,9.649-13.208,18.984,2.641,8.888,7.319,17.061,10.1,25.938,3.122,9.959,6.957,19.694,9.97,29.675,6.466,21.429,12.126,43.11,17.917,64.731,2.721,10.158,6.12,20.336,8.113,30.668,1.038,5.375.868,10.181,2.822,15.387,1.909,5.089,3.719,10.068,5.287,15.278,2.442,8.115,4.787,16.245,7.4,24.3l1.139,3.447c1.671,4.967,3.008,9.99,4.2,15.093.72,3.084,3.167,9.016,2.479,12.208-1.977,9.194-14.137-.174-17.047-3.927-6.752-8.7-11.595-19.353-16.651-29.1-20.3-39.136-30.285-81.348-40.752-123.951l-2.054-8.383c-2.053-8.366-4.127-16.688-6.447-25-3.241-11.615-4.184-23.758-8.009-35.307-3.952-11.933-7.983-23.433-10.886-35.71l-2.033-8.529c-.672-2.845-1.325-5.695-1.921-8.553C830.815,487.451,830.788,481.836,826.723,481.228ZM465.475,496.381c-6.9.259-13.983,1.892-20.841,2.7-5.936.7-11.9-1-17.552-.24-2.593.348-4.887,1.883-7.505,2.272-3.3.491-6.757-.228-10.085-.223l-1.6,0c-5.211.029-10.945.3-15.162,3.462a31.167,31.167,0,0,0-10.721,15.589c-1.544,5.519-1.246,11.689-2.071,17.279l-.169,1.041c-.875,4.936-1.062,11.028-1.881,16.634-3.548-4.446-3.32,1.971-3.358,3.867-.044,2.291-2.508,6.926-1.874,8.269.41.867,3.164.409,3.4,1.087.479,1.4-1.179,1.991-1.209,3.037-.117,4.078.116,8.293.106,12.4l-2.889-2.207h0c-.506,1.1-.666,2.534-1.148,3.647-.218.506-2.251.366-2.347,1.362-.126,1.3,2.719,3.8,3.268,5.222.983,2.537,1.609,1.536-.057,4.27-1.917,3.149-5.056,3.324-4.554,7.9a13.392,13.392,0,0,0,2.658-2.713c.475,2.732-.713,5.14-.857,7.86-.095,1.779,2.07,8.878.438,10.066-.686.5-2.52-2.231-2.687-2.424-1.745,3.478.957,4.88,2.182,7.684,1.691,3.874.021,3.1-.318,6.749-.228,2.445.44,3.6.3,5.888-.058.974-1.444,2.268-1.606,3.377-.293,1.989.783,2.906.666,4.351-.058.717.87.844.68,1.883-.164.906-2.251,1.544-2.374,2.114-.707,3.3,1.274,1.65,1.577,3.217.506,2.614-.964,3.063-1.8,5.468-1.444,4.147-.048,6.08.844,9.969.755,3.279-.366,3.3-.792,6.434-.259,1.9.29,2.131.281,3.9-.025,6.1-1.39,12.443-1.446,18.906-.134,15.3-1.43,30.371-1.623,45.631-.191,14.994-1.282,30.174-1.939,45.356-.32,7.4-1.07,14.779-1.394,22.183-.351,7.983.35,15.931-.128,23.881l-.132,1.835c-.658,7.784-.263,15.593-.585,23.4l-.031.55c-.285,4.154-1.916,14.472.406,16.849,3.159,3.232,15.958-.209,20.1.018a159.929,159.929,0,0,1,23.614,3.6c18.072,3.806,36.185,8.654,54.265,12.068,15.074,2.846,29.217,10.087,43.248,16.216-1.285-12.89-3.555-25.464-3.975-38.456-.376-11.677.724-23.293.465-34.955-.553-24.883-1.963-49.491-1.407-74.37a658.81,658.81,0,0,1,5.7-73.053l.788-5.706c1.466-10.754,2.832-22.021,6.645-32.15,1.866-4.956,4.905-8.59,3.644-14.042-1.276-5.511-3.714-11.256-5.656-16.654l-.409-1.15-.14.97c-1.649,11.988-7.132,69.948-27.748,51.822-8.3-7.295-12.139-23.1-13.994-33.455-2.327-13-1.717-26.615-1.566-39.837l.025-3.044c.13-28.864,3.3-58.31,6.216-87.015l.063-.553C470.111,500.908,472.594,496.115,465.475,496.381Zm51.76,318.8c-3.888,1.585,3.978,2.725,4.5,2.746l-.185-.415C520.691,815.674,519.425,814.285,517.236,815.179ZM768.624,693.325c-4.188,2.065-6.685,5.123-9.289,8.764l-1.576,2.229c-2.5,3.567-3.39,5.118-3.236,9.717l.02.5c.239,5.028-.041,10.086,1.219,15.089l.171.672A6.748,6.748,0,0,0,758,734.123l1.177,1.2c.769.8,1.653,1.761,1.159,1.479,3.114,1.778,7.492,2.333,11.417,2.661l3.126.24c5.729.419,7.231.272,9.7-5.509l1.48,3.142h0l.449-2.256c.547-2.829,1.351-7.248,1.063-7.187-.71.153-1.472,2.2-1.82,2.718.221-4.048,3.1-7.074,4.5-10.684,1.285-3.319,1.813-7.077,2.8-10.51l.251-.895c.879-3.223,1.7-7.35.853-10.5-1.233-4.58-1.622-3.276-5.129-1.367C788.321,686.89,774.734,690.313,768.624,693.325Zm-178.3-38.682a11.577,11.577,0,0,0-2.151-.283q-1.447.422-1.144,1.611c.42-.192-1.91,1.222-2.132,1.373l-.639.425c-4.346,2.828-8.22,4.257-9.033,10.595l4.567-5.43h0c.578,4.414-.635,6.688,3.648,9.646,2.247,1.554,5.008,2.634,7.475,4.085l.91.563c3.879,2.535,9.691,4.164,13.132,7.08,2.185,1.851,2.573,7.091,5.6,7.726,2.578.539,5.65-4.119,6.534-6.216.978-2.323.325-4.236.723-6.557.267-1.557,1.432-1.881,1.227-3.71-.214-1.919-2.074-2.933-2.883-4.455-.724-1.365-.943-3.3-1.51-4.378l-.324-.608c-1.454-2.705-4.182-7.438-6.635-8.992-2.231,5.857-3.922-.078-7.016-1.8q-1.731-.047-3.463-.03-.9-.855-1.825-1.674A16.353,16.353,0,0,0,590.328,654.642ZM697.465,604.3c-3,1.745-5.02,7.934-9.034,4.084.188,4.648-2.781,5.254-4.737,8.451-.532.871-.567,2.957-1.311,4.234-1.389,2.394-2.354,2.542-2.8,4.874a12.925,12.925,0,0,1,.761,2.6c.191,3.28-2.09,5.9-1.462,9.51.881,5.075,4.737,10.726,7.456,14.947,6.147,9.542,14.739,16.938,26.511,17.613,7.862.451,26.358-2.692,28.044-10.912a22.347,22.347,0,0,1-1.127-2.944,2.574,2.574,0,0,1,1.625-2.991,3.805,3.805,0,0,0,2.276-1.619,5.594,5.594,0,0,0-1.312-2.2c.218-1.1,2.071-1.154,2.043-1.864-.056-1.321-1.218-4.631-1.529-6.137-.54-2.6-.836-5.079-1.309-7.7-.385-2.118-1.684-3.165-2.018-5.107-.229-1.325,1.117-2.527,1-3.932a9.767,9.767,0,0,1-2.156-2.774,5,5,0,0,1,.81-3.053c-1.3-9.109-14.023-16.782-23.3-17.206l-2.5-.064C708.36,602,701.38,602.023,697.465,604.3ZM449.253,316.988c-2.952.075-4.878-.427-7.607.45-1.449.465-2.388,1.157-3.945,1.585-.974.27-2.26-.676-3.568-.219-3.235,1.127-4.335,4.011-8.239,3.952-.468-.007-1.967-1.117-2.183-1.055a9.656,9.656,0,0,0-1.435.993c-.26.059-.185,1.9-.878,2.214-1.185.546-2.025-1.284-3.1-1.165-2.726.3-4.754,3.114-7.77,3.8-3.874.875-7.225-.4-10.926,1.4-2.957,1.439-4.451,4.714-6.91,1.329-2.167,4.6-6.106,3.369-10.089,5.134l-.332.154c-5.71,2.779-11.9,4.187-17.979,6.285-12.509,4.317-25.107,8.74-37.3,13.936-25.295,10.78-49.791,22.734-74.52,34.323-22.762,10.668-43.916,24.608-64.472,38.825l-3.847,2.668c-10.671,7.416-21.28,15.207-29.6,25.364l-1.224,1.492c-2.43,3.008-5.256,7.013-3.812,10.693,1.8,4.578,9.4,7.421,13.7,8.3a134.152,134.152,0,0,0,17.57,1.923c6.195.416,12.849.621,18.98.537,12.084-.167,23.936-1.345,36.076-1.612,13.81-.305,27.349-3.218,41.131-3.391,15.151-.189,30.129-2.089,45.3-1.5,29.247,1.145,58.468,1.99,87.8,2.131,3.649.017,7.228-.423,10.813.214,2.909.515,5.01,1.533,8.129,1.309,2.906-.208,5.6-1.479,8.56-1.633,3.888-.2,7.872.438,11.78.358l2.049-.048c12.744-.331,27.449-1.207,39.517,2.752,5.052,1.659,11.4,6.487,8.324,12.746-3.046,6.188-10.826,1.144-15.642,3.956-4.487,2.62-2,9.769-1.681,14.044a242.139,242.139,0,0,1,.493,24.272c-.471,17.924-1.562,35.826-1.772,53.755-.089,7.741,0,15.48.343,23.213l.141,2.9c.406,7.676.136,16.032,2.76,23.358,3.655-9.147,4.1-19.246,5.55-28.885q1.569-10.428,3.09-20.86l1.506-10.437c.887-6.2,1.807-43.449,13.943-38.583,12.9,5.171,8.416,33.825,9,44.128a175.278,175.278,0,0,0,3.374,27.233l.535,2.4c1.141,5.437,3.953,22.5,9.345,23.655l3.135-14.717c3.13-14.72,6.172-29.46,8.461-44.337,1.235-8.026,2.337-16.107,2.926-24.212l.148-2.211c.28-4.6-.061-15.671,6.595-16.207,19.564-1.577,6.439,80.854,21.058,91.225,5.407-10.756,7.521-21.973,8.989-33.9.667-5.428,2.1-11.539,1.251-16.983l-.229-1.436c-.992-6.069-1.907-10.242-.736-16.661l.144-.751c1.216-6.025,2.091-12.211,3.5-18.184,1.014-4.3,3.659-6.405,5.055-10.287,3.932-10.929,3.679-24.763,5.247-36.235l.46-3.368c1.417-10.464,2.6-20.807.743-31.393-2.038-11.607-10.529-15.3-20.182-20.09l-2.008-1c-9.019-4.54-17.84-9.275-27.785-11.258l-6.762-1.347a197.215,197.215,0,0,0-28.515-4c-21.665-1.118-42.9.18-64.465,1.206-23.981,1.143-47.986-.281-71.955-.611l-8.772-.125c-8.8-.122-17.657-.213-26.381-.071-5.828.1-11.483,1.107-17.35.96-5-.124-14.769,1.417-19.144-1.241a5.7,5.7,0,0,1-.53-9.253c2.761-2.427,8.075-2.643,11.667-3.349l.423-.087c10.505-2.28,20.98-3.67,31.543-5.424l2.883-.488a81.406,81.406,0,0,1,18.885-1.208c6.469.317,13.067-1.533,19.608-1.847,12.321-.588,24.706-1.172,37.046-1.446l4.625-.088c26.877-.419,53.444-2.47,80.347-2.405.013-5.992-8.736-15.209-11.745-20.224a157.758,157.758,0,0,0-16.061-22.317c-6.13-7.1-12.674-13.875-18.618-21.135-2.46-3-4.286-6.509-6.794-9.448C453.8,315.763,453.136,316.891,449.253,316.988ZM625.342,526.673c-12.976,5.865-21.984,19.443-23.3,33.345l-.053.614c-.4,5.078-1.845,11.525,1.247,16.026,3.227,4.7,11.364,9.638,15.858,4.419a6.213,6.213,0,0,0,4.395,7.134c1.162.283,2.26-.561,2.774-.486.655.093,2.036.953,2.5.86,3.037-2.3-.952-4.867,5.041-3.562,1.529.334-.007,2.121,2.3,2.186.871.024,3.008-2.12,3.611-2.623.5-.419,2.6-3.223,3.277-3.892l.08-.076c.138.023,2.747-.943,2.048-.288l.237-.2a16.322,16.322,0,0,0,4.507-7.913c2.365-8.467,2.087-18.548-2.619-25.943l-.32-.489c-2.1-3.116-3.778-6.92-6.944-9.011-4.294-2.836-11.392-4.523-16.189-6.325Zm170.542-8.33c-1.008-.093-5.407,2.769-6.551,3.237-4.772,1.953-10.849,1.772-14.449,5.71-3.5,3.828-6.328,7.507-7.8,12.729-.744,2.63-1.233,5.355-2.152,7.937-.994,2.793-3.23,5.2-3.994,7.992-3.115,11.368,10.127,21.744,19.428,24.76a6.557,6.557,0,0,1,3.525.23,10.991,10.991,0,0,1,2.183,1.9c2.672.838,3.485.658,5.872-.4l.728-.327c4.909-2.213,10.644-2.966,14.36,2.211,1.147-6.026,5.331-2.44,7.343-6.322,1.111-2.141-1.316-8.071.09-9.614,2.388-2.62,9.837,2.039,9.645-4.081-.071-2.23-2.6-2.968-3.483-4.73-1.577-3.163-.7-6.511,1.49-9.291l.129.367c.317.958,1.025,3.14,1.92,2.43,2.786-2.216-1.794-5.705-2.794-6.914l-.837-1.006c-1.275-1.554-2.245-2.992-1.942-5.289.228-1.725,2.995-3.519,2.9-5.2-.076-1.277-3.5,1.98-3.681,2.128l.225-1.773c.742-6.007,1.016-11.734-5.606-14.706-2.729-1.224-5-.782-7.8-1.114l-.492-.069c-3.1-.5-2.743-1.743-5.313,1.972C797.335,519.193,798.326,518.57,795.884,518.343ZM704.077,192.549c-7.481,2.115-14.167-2.274-20.767,2.694-5.3,3.987-9.788,9.725-16.934,10.143-3.077.18-7.252-2.568-9.9-1.912-3.378.836-4.355,5.877-5.657,8.709l-1.773,3.9c-2.56,5.626-5.5,11.764-9.487,16.054-1.674,1.8-4.632,2.36-6.062,4.038-1.664,1.95-.74,5.909-3.123,6.264-1.381.205-2.484-1.668-3.647-2.115a14.954,14.954,0,0,0-6.026-.844,25.743,25.743,0,0,0-11.407,2.931l-.6.335c-7.537,4.351-10.107,10.737-.743,14.617a42.034,42.034,0,0,0,12.2,3.155c4.571.406,9.2-1.021,13.717-.464,8.562,1.054,11.3,8.105,13.534,15.454l.121.4c3.1,10.305,5.609,20.739,9.093,30.937,2.846,8.331,8.017,16.8,9.51,25.5.918,5.346-.284,4.948-3.853,8.253-2.719,2.517-4.354,5.821-7.3,8.347-8.212,7.04-15.369,5.164-24.906,2.251-.913,8.6.028,17.272.291,25.882.308,10.082.321,20.056,1.626,30.078,2.356,18.081,5.672,36.165,12.145,53.273,5.893,15.582,15.839,26.6,32.683,29.968,15.132,3.025,29.88-2.163,39.511-14.254,9.768-12.259,12.918-27.671,18.522-41.934l.386-.971c2.86-7.105,4.979-14.25,7.364-21.521l.194-.549c1.78-4.774,8.25-16.484,6.3-20.782-1.981-4.368-13.67-5.861-17.717-8.289-5.986-3.593-11.553-10.546-16.252-16.05l-2.491-2.887c-2.44-2.763-4.1-3.951-5.963,1.11-2.665,7.221-.734,15.564-3.221,22.569-2.448,6.888-7.79.093-8.338-4.4-1-8.228.1-17.524.56-25.887l.273-5.423c.831-15.072,2.864-31.443,16.165-40.537,13.8-9.434,28.773-12.37,36.434-28.657l1.4-2.96c2.632-5.633,5-11.507,3.364-17.717a225.724,225.724,0,0,0-8.727-25.353c-6.2-15.562-15.914-29.113-24.405-43.4-1.147-1.927-1.387-4.4-3.893-4.942C713.439,186.951,706.824,191.772,704.077,192.549ZM859.806,490.288l.221.021c1.909.139,7.878-.379,5.929-3.811C863.6,482.353,860.362,489,859.806,490.288Zm2.022-60.166-.75,0c-3.991-.069-9.031-.783-3.36,3.443-1.226.575-2.836.933-3.881,1.84-.775.672-1.065,2.59-1.972,3.05-1.96.99-3.426-.942-5.639,1.257-2.329,2.318.055,3.778-.464,4.8-1.492,2.937-3.545,1.476-3.478,5.953.105,7.135,4.08,15.537,6.412,22.32l.385,1.155c1.311,4.053,2.908,9.872,8.369,8.272l-.075.614c-.225,1.734-.5,3.412.633,4.97,1.183-1.393,1.608-4.45,2.405-6.086,1.176-2.409,3.091-4.737,4.443-7.08l-.046.754c-.22,3.105-.733,4.179-3.07,6.782,3.312.406,7.391,3.06,9.321-.846,2.207,2.08.24,5.444.527,8.02,3-1.84,1.96-2.825,3.122-5.819l.108-.267c.835-1.975,2.931-5.208,4.771-2.189.81,1.328-1.868,3.152-.055,3.932,1.066.458,3.9-3.111,4.422-3.672,3.576-3.871,5.864-7.829,6.159-13.109.082-1.445.061-5.051-.453-5.881-1.486-2.4-5.44-.978-5.1-5.358l4.721,2.349h0c.489-4.925-4.826-7.839-7.047-11.747l-1.559-2.75a34.053,34.053,0,0,0-6.214-8.276l-.524-.5c-1.9-1.769-5-5.413-7.471-6.264C864.546,429.126,863.767,430.1,861.828,430.121ZM757.492,439.81a32.877,32.877,0,0,0-5.137,1.335c-2.114,1.359-2.966,5.764-3.774,8.142l-.1.286c-.739,2.022-1.253,4.714-2.9,6.241-1.62,1.509-3.313,1.546-4.826,3.353-4.6,5.5-8.031,14.944-10.816,21.583,3.777-.913,1.032,1.62,2.639,3.064l1.172,1.06a2.979,2.979,0,0,0,2.239.971l1.884.164c6.216.608,9.052-1.048,13.912-4.919,4.122-3.283,5.445-5.434,7.818-10.174,3.392-6.77,1.738-11.084,1.55-18.2l5.1,4.7h0l-1.584-6.154h0l-3.512,1.461.357-1.642C762.563,446.1,763.3,440.07,757.492,439.81Zm-13.761,20.139a18,18,0,0,1-6.35,10.179l.114-.247C738.434,467.772,741.572,459.275,743.731,459.948Zm4.785-18.535c-3.258,2.162-5,8.853-6.589,12.2C745.382,450.648,748.479,446.119,748.516,441.413ZM600.675,382.04c-3.662,4.164-8.774,7.988-10.65,13.392-1.486,4.275-.265,9.419.914,13.842l1.014,3.772c1.293,4.691,3.1,10.065,7.071,12.481,4.949,3.01,11.658,2.715,16.645.062-4.583-11.877-3.54-22.437-2.992-34.616l.205-4.874c.127-3.4.047-8.082-2.589-9.756C606.208,373.751,602.809,379.614,600.675,382.04Zm216.8-3.265c-2.862.974-4.259.115-7.331.414-2.708.264-4.989,1.582-7.819,1.581-.672,0-1.415-1.425-2.187-1.346-1.2.123-1.318,1.657-2.169,1.734-2.991.266-3.165-.922-5.954-2.038-4.636-1.855-7.89,2.46-7.785,7.561.137,6.756,7.184,9.518,12.584,11.07l2.721.778c5.371,1.508,9.087,2.255,15.187,1.169,2.046-.366,4.125.286,5.739-1.126,2.171-1.9,1.02-5.9,3.5-7.75l.843,3.31h0c2.879.146.245-3.907.273-4.714.059-1.732,1.68-3.22,1.417-5.274l-.075-.182c-.46-1.066-2.908-6.436-3.6-6.81C820.656,375.993,819.4,378.118,817.472,378.775Zm10.859,2.158c-2.237,2.325,1.389,4.115,3.02,4.622C831.088,383.313,830.007,382.3,828.331,380.933ZM502.078,313.62c1.338,3.871,6.133,9.259,8.669,12.631a38.5,38.5,0,0,0,11.344,9.58,20.89,20.89,0,0,0,3.815,1.65,2.323,2.323,0,0,1,1.619-.7,5.123,5.123,0,0,0,2.349,2.069c3.217,1,8.54.848,11.737.714,5.153-.218,11.169-3.183,16.295-4.171l1.325-.255a12.715,12.715,0,0,0,4.522-1.638c1.068-.626,3.157-5.455,3.456-.713,1.321-.813.9-2.151,1.869-2.746.922-.568,3.87-1.116,4.969-2.367a38.963,38.963,0,0,0,4.45-7.7l.186-.411c.686-1.53,2.139-5.472,2.025-7.064-.243-3.372-1.331-2.6-4.212-3.993a26.006,26.006,0,0,0-4.959-2.231c-.223-.059-.758,1.09-1.135.991-.66-.171-.926-.932-1.388-1.08-3.515-1.14-7.664-4.518-12.01-4.191-1.876.141-3.634,3-4.6,2.855-1.482-.225-.742-3.268-1.776-4.371-2.637-2.808-11.435-2.354-14.851-2.841q-13.928-1.985-27.884-3.744C499.046,292.84,500.418,308.821,502.078,313.62Zm220.476-30.667c9.957.31,9.4,12.184-.151,12.6C713.517,295.938,713.736,282.681,722.554,282.954Zm2.849-72.792c7.235-.073,4.949,15.508,5.038,19.333.165,7.159,7.655,8.176,10.456,14.67,3.269,7.572,1.014,16.613-4.081,22.785-3.89,4.71-11.375,10.107-16.719,4.341-5.942-6.417-.232-10.018,3.928-14.014,6.025-5.79-5.5-7.473-8.5-12.17-5.086-7.983.5-12.136,7.957-13l-.187-.457C721.46,226.978,716.6,210.251,725.4,210.161Zm-33.928,12.222c6.261,1.3,2.709,12.893,5.886,13.768-.831,3.7-.578,12.136-4.594,14.129-6.735,3.341-8.29-12.773-8.238-16.33l.011-.424C684.685,229.54,686.1,221.267,691.475,222.383Z" transform="translate(0 0)" fill-rule="evenodd"/>
    </g>
  </g>
</svg>
