<svg xmlns="http://www.w3.org/2000/svg" xmlns:xlink="http://www.w3.org/1999/xlink" width="1080" height="1080" viewBox="0 0 1080 1080">
  <defs>
    <clipPath id="clip-problem">
      <rect width="1080" height="1080"/>
    </clipPath>
  </defs>
  <g id="problem" clip-path="url(#clip-problem)">
    <rect width="1080" height="1080" fill="#fff"/>
    <g id="Master_Doodles_Studying" data-name="Master/Doodles/Studying" transform="translate(-141.273 -39.624)">
      <path id="Accent" d="M373.321,199.291q-1.66,27.138-3.321,54.274c7.121-2.051,52.418-15.379,49.621-1.865-2.007,9.692-14.743,20.177-21.231,26.925q-8.958,9.32-18.427,18.138,17.385-6.654,35.047-12.568c8.906-2.974,17.878-5.877,27-8.106,3.388-.828,12.535-4.206,15.735-1.9,8.409,6.052-37.219,50.629-43.47,56.912a292.006,292.006,0,0,1,27.092-11.047c6.645-2.313,27.175-11.153,33.056-3.6,6.294,8.077-9.3,26.624-13.624,32.5a299.5,299.5,0,0,1-19.957,24.238c29.284,26.3,63.7,49.713,100.319,64.264,26.853,10.669,53.23,13.385,81.565,7.531,29.11-6.016,57.026-17.552,83.565-30.742A476.715,476.715,0,0,0,751.913,388.7q-9.06-11.022-17.6-22.463c-8.132-10.873-18.127-22.753-22.765-35.7-4.538-12.668,12.488-10.195,20.655-9.507a273.64,273.64,0,0,1,35.21,5.639q-12.292-8.55-24.125-17.748c-10.277-7.976-23.983-16.995-30.71-28.469-5.915-10.09,7.067-7.542,13.07-6.22,14.311,3.153,28.236,8.525,41.886,13.765q14.995,5.757,29.769,12.089-9.16-7.963-17.681-16.639c-7.626-7.752-17.907-17.22-21.326-27.9-6.961-21.741,39.867-5.341,47.863-1.986Q803.94,219.783,801.728,186L615.707,235.5c-6.7,1.784-15.087,5.667-22.075,5.874-6.33.189-13.976-2.661-20.148-3.839L461.275,216.1l-87.954-16.806" transform="translate(88.181 83.275)" fill="#ff5678" fill-rule="evenodd"/>
      <path id="Ink" d="M637.891,42.423c4.612-4.761,7.015-3,10.013,1.893,1.882,3.067,3.524,8.535,6.507,10.164,6.609,3.611,8.472-3.067,11.979-5.783,4.938-3.822,9.412,1.156,14.276,2.516s11.2-1.016,15.593,1.761c6.012,3.8,4.332,10.916,6,16.466,1.592,5.289,5.21,2.949,9.131,5.082,4.081,2.217,3.262,5.266,3.279,9.621a62.01,62.01,0,0,1,.065,6.623c-.424,3.893-1.746,3.626-3.249,6.311-3.819,6.825,3.674,7.07,6.616,13.05,1.5,3.057.766,2.292.536,4.78.09-.977-1.807,3.695-1.536,3.251-1.074,1.758,1,1.407-1.254,2.894-.591.39-2.111-.3-2.789-.08-2.5.828-3.161,1.552-5.319,3.194-5.109,3.889-6.435,2.087-11.011-1.981a12.283,12.283,0,0,0-.593,7.841c.365,1.1,2.918,3.515,2.831,4.365-.073.726-3.117,1.816-3.76,2.594a8.754,8.754,0,0,0-1.885,4.842c-4.539-1.981-6.932.427-2.085,2.741,5.322,2.539,14.027,1.751,19.853,2.594,6.525.942,13.471,2.108,19.361,5.224,5.811,3.077,10.04,8.361,14.7,12.885,4.426,4.3,8.325,8.281,10.053,14.361,1.342,4.73.852,10.759,6.22,12.678,4.793,1.714,13.181-.734,18.243-.608a146.761,146.761,0,0,1,24.273,2.827c53.118,10.295,100.989,40.273,145.287,70.3,21.467,14.55,41.986,32.17,56.7,53.553,7.835,11.389,18.049,21.085,26.128,32.369,7.756,10.836,15.333,21.965,22.371,33.285,7.145,11.493,11.714,24.183,17.23,36.491,5.734,12.8,11.771,25.458,16.927,38.508,2.66,6.734,5,13.564,7.365,20.4,1.013,2.928,2.375,5.86,3.19,8.842.619,2.268.032,4.109.412,6.16.912,4.935,3.465,9.911,4.532,15.217,1.3,6.455,2.949,12.784,3.936,19.308,2.064,13.639,3.452,27.818,3,41.617-.23,7.029-.932,14.038-1.072,21.07-.1,5.071,1.272,11.3-.569,16.187-.935,2.482-3.173,3.709-4.174,5.987-1.1,2.511-.415,4.86-.679,7.524-.456,4.617-2.4,7.609-4.314,11.438-4.485,8.984-11.235,15.054-11.763,26.139l-6.544-3.4c0,3.742,1.122,5.224-1.58,8a8.979,8.979,0,0,0-3.7.9,5.34,5.34,0,0,0-.746,1.9c.266-.187-1.808,1.575-1.618,1.41l-.259.225c-2.243,1.978-2.271,2.823-2.866,6.5-3.459-.083-2.447-3.657-4.5-5.361a16.064,16.064,0,0,0-.295,3.362c-.065.126-2.09,2.309-2.2,2.468-.357.5.272,1.132-.293,1.852-1.792,2.3-4.316,3.2-7.038,4.037-5.922,1.815-12.263,1.34-18.129,2.361-5.293.921-10.852-1.745-15.935-1.231-2.814.284-3.1-.209-4.41,3.274-1.145,3.029-.934,7.148-1.484,10.327a279.38,279.38,0,0,1-12.8,48.22c-1.937,5.268-13.673,21.576-5.679,24.761,4.112,1.639,10.736-1.782,15.135-1.79,7.466-.016,15.229,2.183,22.521,3.621a284.456,284.456,0,0,1,46.9,13.109,42.816,42.816,0,0,1,16.749,11.6c2.025,2.281,3.441,5.043,5.964,6.639,2.553,1.616,4.366,1.107,6.508,3.667,7.971,9.523-2.022,23.751-12.6,25.606-2.317.408-4.979-1.87-6.828-.4-1.333,1.061-1.836,3.784-3.073,5.2-1.632,1.88-6.953,6.636-8.478,2.925-.88-2.141,3.224-2.826,1.214-4.978-1.325-1.42-4.234,1.519-4.884,2.465-2.812,4.105-1.238,7.986-7.936,4.515q3.751-1.338.992-2.172a3.368,3.368,0,0,0-1.554-1.608c-3.405,1.528-.481,3.458-2.335,5.235-1.7,1.627-4.542.362-6.58.576-3.446.362-4.162,2.014-8,.747,1.906-4.185-.587-3.518-4.4-4.963-1.121,1.891.821,3.034,1.981,4.07a19.134,19.134,0,0,1-6.5,2.466l-1.135.265c-.8-3.582-.82-6.331-5.327-4.363-.5.219-1.831-.081-2.238.346-.924.965,1,2.8.407,3.476-2.566,2.891-1.636.745-4.721.339-3.5-.461-6.518.339-10.045.592-9.641.688-19.362-.487-29.048.279a35.056,35.056,0,0,0-10.186,2.53c-3.574,1.288-3.534,2.5-5.016-1.88-1.585,3.174-2.421.8-4.734,2.333-1.3.861-2.444,2.524-3.789,3.246-4.421,2.369-7.45.14-11.86.253,1.354,2.421,3.765,2.25,1.5,4.189-.831.711-6.313.073-7.789.644-2.077.8-3.477,2.9-5.533,3.626-1.344.476-2.919-.067-4.249.28a23.36,23.36,0,0,1-7.486.991c1.443,5.121-9.115,2.328-10.8,2.516-5.115.567-8.375,6.129-14.107,7.066,1.37,4.872,8.765,9.7,12.209,13.034,3.706,3.582,7.329,7.582,11.432,10.71,9.338,7.12,20.2,13.249,30.137,19.591,20.368,13,43.912,20.671,65.495,31.668,11.383,5.8,21.705,13.223,31.868,20.919,8.99,6.807,18.794,11.91,27.691,18.716,19.643,15.023,40.427,30.564,55.133,50.561,19.048,25.9-7.046,44.645-29.965,52.423-22.829,7.748-45.553,10.407-69.152,10.588-13.494.1-26.8,2.289-40.32,1.882-8.444-.254-19.4,5.762-23.883-4.4-2.727-6.171-1.16-7.177-8.561-9.068a90.691,90.691,0,0,0-13.471-2.4c-11.239-1.223-21.57-7.032-32.728-9.17-25.157-4.821-48.593-15.488-72.539-24.186-6.044-2.194-12.328-3.884-18.292-6.279-5.531-2.222-10.433-5.716-15.915-8.038-10.658-4.511-22.463-6.095-33.409-9.818-10.024-3.409-19.863-8.506-29.331-13.211-9.565-4.751-20.058-4.712-28.231-12.373-8.781-8.23-16.479-20.509-21.826-31.239-2.208-4.427-2.967-9.587-5.3-13.9-2.892-5.333-7.68-5.68-12.215-9.121-7.479-5.669-11.816-16.7-19.788-21.2-10.1-5.7-18.131,1.806-25.433,7.751-4.622,3.761-10.159,6.822-13.8,11.664-3.392,4.51-2.825,8.212-3.4,13.37-.593,5.318-1.88,19.906-8.463,13.9-.585,4.829-1.108,4.339-3.227,7.823a16.227,16.227,0,0,0-2.255,12.116l-3.894-2.57c.393,2.242.981,4-.554,5.971-1.812-2.084-2.642-11.077-7.463-5.449-2.815,3.285-.332,7.317,2.38,8.881-3.161,0-4.42-.437-7.243.621-1.114.417-2.362,1.81-3.651,2.248-1.675.571-2.449-1.339-5.334.545-1.7,1.109-2.817,3.139-4.319,4.484-10.1,9.038-22.981,14.053-35.5,18.447-26.9,9.445-51.183,24.388-75.721,38.491-19.6,11.263-36.61,25.877-56.507,36.8-11.062,6.072-22.09,14.468-34.957,15.809-10.894,1.135-22.919,1.846-33.741.514-25.377-3.122-51.431-.887-76.739-6.44-20.123-4.415-45.237-13.828-48.513-36.955-3.278-23.147,17.987-40.234,31.346-56.2,15.843-18.939,35.625-30.543,56.059-43.96,22.507-14.777,44-31.6,64.987-48.448,19.457-15.616,37.407-33.452,52.294-53.632-2.054-.316-5.712-2.118-7.727-1.361-1.383.519-3.177,4.06-4.206,3.967-.9-.082-.857-1.344-2.734-1.479-2.326-.166-4.759.173-7.474-.331-1.916-.354-5.322-.364-7.044-1.1-1.134-.484-2.335-1.97-3.221-2.315-2.465-.964-4.85.944-7.444-.059-1.733-.672-2.406-2.9-4.408-2.976-1.769-.064-2.177,2.178-3.7,2.292-1.909.142-4.107-1.963-5.9-2.62-4.511-1.652-10.052-2.822-14.635-4.131-3.806-1.089-7.887-1.965-11.71-2.8-7.494-1.645-14.915,1.3-22.344,1.446-5.365.1-22.288.535-23.02-6.774-2.587,1.213-6.383,3.608-9.273,1.689-2.281-1.513-.93-2.905-1.766-5.1-2.141,1.476-1.869,3.825-2.058,6.086-2.822-1.8-4.967-3.98-8.441-4.34q-1.452.771-2.944,1.463a13.389,13.389,0,0,1-4.232-1.842c-2.418-.442-4.2.6-6.588.2-1.986-.336-4.526-1.518-6.468-2.012-6.173-1.572-9.241-7.169-15.485-9.412-2.558-.918-4.47-.872-6.807-2.172-2.673-1.487-2.561-3.2-6.222-3.947.466.654,3.011,3.013,2.131,4.127-4.355-2.941-9.4-4.228-12.2-9.289-4.225-7.64,1.4-13.145,7.157-17.841l.617-.5c12.714-10.255,27.992-15.916,43.876-18.946,16.979-3.238,33.29-5.449,49.423-11.962,16.081-6.494,30.8-9.7,47.957-11.79-3.7-16.5-9.965-32.185-12.867-48.975-1.38-7.983-2.129-16.1-3.152-24.137-.665-5.214.469-15.429-6.287-16.166-2.172-.236-6.336.745-8.338.988-1.4.169-2.185-.558-3.643-.113-2.356.719-3.758,2.878-6.723,3.548-6.179,1.4-10.163-.191-16-.634-5.332-.406-10.047.378-15.127-2.16-11.062-5.529-19.7-11.819-25.96-22.613A113.473,113.473,0,0,1,253.479,619.1,349.8,349.8,0,0,1,250,571.965c-.231-14.927-.9-31.565,3.358-46.042,3.177-10.79,5.555-22.79,11.738-32.247,1.43-2.188,1.867-4.929,3.224-6.969,1.269-1.908,2.509-1.6,3.527-3.893.811-1.824.684-4.785,1.492-6.871,1.266-3.269,3.033-6.409,4.495-9.6q1.21,1.849,2.418,3.7c.772-5.058.6-9.3,3.473-13.683,2.24-3.426,4.764-6.505,6.886-10.094,5.174-8.746,9.535-17.646,14.144-26.692,3.607-7.074,9.009-13.691,12.116-20.434,3.833-8.318,9.679-15.263,15.788-22.324,11.166-12.908,20.024-28.265,32.066-40.433,10.2-10.3,19.188-21.43,29.429-31.738,12.668-12.752,24.913-25.723,39.5-36.267,14.744-10.661,29.608-21.311,44.89-31.515a444.98,444.98,0,0,1,44.95-26.09c9.752-5,19.54-9.9,29.47-14.532,8.131-3.8,15.153-4.409,23.872-5.93,6.989-1.22,10.521-3.949,14.164-9.825,3.218-5.191,5.4-14.022,10.653-17.586,3.04-2.064,7.121-1.754,10.474-3.088,3.7-1.471,7.033-3.9,10.663-5.548,5.956-2.7,17.215-3.691,21.314-9.011-1.834-1.384-6.346-6.921-9.17-6.24-2.654.637-.886,2.074-2.175,3.225-1.968,1.758-2.058,1.379-4.557,1.8-3.716.628-9.711-.09-11.832-3.545-2.341-3.815.411-6.191,2.416-9.9-6.008-2.543-15.917-5.142-19.312-11.392-3.03-5.576,2.163-10.653,2.108-16.531-.08-8.57,2.954-11.315,8.654-17.676,4.56-5.089,1.513-8.027,5.45-13.345,3.969-5.361,6.712-3.424,11.6-6.065,4.915-2.654,1-4.529,1.4-9.016C629.053,52.507,635.048,45.359,637.891,42.423ZM483.863,825.19c-3.85-2.772-11.349-5.155-15.467-1.2-1.781,1.71-1.385,4.045-2.553,5.977-1.238,2.051-3.195,3.512-4.584,5.478-4.021,5.69-5.394,13.172-8.372,19.428a197.138,197.138,0,0,1-10.738,19.347,396.706,396.706,0,0,1-59.356,74.064c-11.306,11.015-24.137,20.32-36.42,30.186-12.831,10.306-25.85,20.348-39.826,29.072-13.04,8.137-24.162,15.846-35.312,26.457-12.135,11.547-22.45,24.735-32.837,37.829,5.435,1.661,15.9,7.039,21.537,6.657,4.309-.29,5.008-4.187,7.233-7.691,6.741-10.614,16.52-19.784,26.69-27.054,2.328-1.663,8.335-7.833,11.352-7.467,7.321.887,4.187,10.524,1.784,14.181-7.417,11.286-17.914,21.735-27.306,31.381,5.318.637,10.6,1.523,15.88,2.437l5.275.915c6.635,1.143,8.3,1.582,11.9-4.136,6.781-10.753,13.582-20.552,23.909-28.278,3.89-2.91,9.83-7.8,15.083-5.48,4.7,2.072,4.79,7.544,2.844,11.537-2.722,5.583-9.561,9.949-14.032,13.986-5.295,4.784-10.557,9.6-15.861,14.379,7.758,1.978,15.767,6.709,22.108-.323,5.423-6.016,9.364-11.465,16.489-15.978,4.7-2.98,12.826-6.416,12,2.917-.634,7.164-8.965,12.161-13.036,17.361,14.234,6.456,30.191-4.895,42.019-11.542,5.774-3.243,11.244-5.932,16.471-10.068,4.943-3.911,10.464-5.842,14.825-10.246,4.651-4.692,10.371-7.575,15.778-11.307,6.142-4.239,11.833-9.58,18.738-12.582,5.769-2.508,10.208-5.94,15.824-8.757,5.43-2.723,11.319-4.238,16.774-6.794,6.1-2.857,11.267-6.5,17.68-8.9,7.128-2.671,14.428-4.852,21.645-7.255,9.829-3.274,22.487-5.814,29-14.651,4.13-5.605,3.732-12.049,4.513-18.61.922-7.758,2.312-15.245,2.543-23.094.5-17.02,1.891-33.99,2.406-51,.23-7.657,2.581-17.111.746-24.629-1.51-6.2-6.07-7.28-4.213-14.165-18.043-2.617-35.6-6.15-53.311-10.456a89.37,89.37,0,0,1-21.824-8.323C495.062,835.055,490.054,829.646,483.863,825.19Zm351.483-2.027c-5.925,6.758-9.894,14.574-16.023,21.171a97.1,97.1,0,0,1-20.179,17.087,171.757,171.757,0,0,1-26.56,13.668c-7.931,3.093-17.777,7.842-26.215,8.987-7.049.956-10.3.818-6.67,9.22,3.115,7.208,7.067,14.16,9.452,21.668a68.2,68.2,0,0,1,2.5,27.178c-.813,7.551-6.334,15.677-4.819,23.234,2.871,14.3,21.739,22.448,33.746,26.535,16.476,5.607,31.962,12.776,47.775,19.942,33.184,15.036,66.925,29.953,101.361,41.812,8.775,3.023,17.886,4.221,26.584,7.666,7.748,3.068,15.6,5.318,23.478,7.981,8.48,2.865,16.156,7.919,25.367,7.159,7.616-.628,15.224-1.7,22.86-2.327a125.541,125.541,0,0,0-17.468-16.57c-4.767-3.753-11.213-7.872-13.479-13.81-1.5-3.929-1.7-9.946,3.006-11.53,4.971-1.673,13.076,4.973,16.889,7.373,10.461,6.576,23.186,12.833,29.458,24.018,2.682,4.787,3.276,8.971,9.152,10.358,3.848.908,17.709,1.371,20.232-2.513-9.926-10.671-25.121-23.018-30.141-37.182-1.577-4.449-1.729-13.158,4.563-13.761,5.047-.484,10.28,6.875,13.144,10.029,6.046,6.654,11.823,13.475,17.375,20.547a60.312,60.312,0,0,1,6.456,9.072c1.087,2.085,1.509,5.684,3.351,7.269,3.837,3.3,11.054-.3,15.422-1.467a94.155,94.155,0,0,0,21.972-8.772c10.428-5.967-20.276-24.934-24.025-28.189-12.043-10.454-23.52-20.009-37.2-28.342A739.267,739.267,0,0,0,979.23,955.5c-7.9-3.483-16.5-5.85-24.188-9.667-6.148-3.049-11.748-7.453-17.391-11.312a200.006,200.006,0,0,1-36.41-31.425C878,877.364,857.216,850.059,835.347,823.163ZM487.234,453.62c.831-6.533-26.281-8.868-30.214-5-2.932,2.886-2.631,9.042-4.3,12.683A29.275,29.275,0,0,1,439.863,474.7c-5.9,2.829-13.555,2.289-17.912-3.057-3.828-4.7-3.447-11.446-4-17.12-16.194,1.2-26.167,23.514-30.677,36.207,4.91,1.688,10.624.527,15.039,3.719l-4.1.651c3.853,14.775-5.342,25.2-16.625,33.778-4.721,3.585-8.812,5.439-10.093,11.524-1.577,7.5-1.406,15.743-2.256,23.376-.9,8.079-1.577,15.893-1.825,24.021-.108,3.478-2.04,15.23.974,17.783,2.506,2.124,13.305,1.6,17.059,2.408,5.915,1.27,13.107-.817,17.665,3.466l-8.408,1.383c9.223,10.381,5.355,23.679-1.344,34.213a63.074,63.074,0,0,1-10.062,12.4c-3.423,3.179-8.371,5.736-10.123,10.321-3.625,9.484,4.5,25.926,6.639,35.136,3.134,13.529,5.609,27.214,10.741,40.185,7.51-8.338,22.632-18.434,31.486-6.165-5.179-1.446-11.27-4.3-16.184-.512,15.943.89,26.189,13.073,20.214,28.746-2.116,5.553-12.805,15.558-11.728,20.941.627,3.127,6.306,6.944,8.564,9.179,3,2.964,5.827,6.328,9.517,8.455,5.945,3.429,16.994,4.73,23.559,2.318,3.224-1.184,2.545-.024,3.838-3.858,1.419-4.2.746-7.29,3.534-11.2,3.7-5.2,12.329-10.459,13.3-17.134.51-3.536-1.882-7.084-2.361-10.485-.653-4.639.367-9.484.367-14.149-2.188,1.159-21.394,13.794-21.795,13.467-3.525-2.878,8.077-11.305,10.208-12.6,6.021-3.675,12.132-5.023,16.819-10.612,3.24-3.864,7.235-10.841,12.23-4.741-4.777-.486-7.113,2.01-9.055,6.013,8.713,0,15.488,1.854,20.941-5.592,6.135-8.379,11.417-17.1,18.491-24.768,5.414-5.866,11.688-10.58,7.168-18.753-3.659-6.618-10.2-12.042-14.666-18.14-10.1-13.772-18.662-28.652-28.518-42.61-4.208-5.959-6.958-13.472-14.783-13.764-6.355-.238-11.381-.691-12.963-8.12-1.064-5.009,2.589-12.712-1.639-16.745-3.1-2.959-15.311-3.1-19.252-1.842-5.542,1.767-9.309,9.086-15.883,7.684-5.969-1.273-5.9-8.594-10.58-11.563-3.335-2.118-9.255-1.365-11.782-4.94-3.537-5,1.968-6.879,6.093-7.756,6.455-1.371,9.368-.874,12.931-6.957,2.774-4.741,8.493-10.57,7.035-16.353-1.448-5.746-8.059-8.941-9.685-14.565-2.24-7.738,3.583-5.762,8.209-4.476,3.636,1.013,4.625-.355,8.195-.039,3.1.274,7.626,3.269,9.926,5.2,3.161,2.653,2.447,4.42,4.291,7.471.789,1.3-.24,5.063,2.335,1.57,1.5,1.979,3.726,3.158,5.138,4.653,1.134,1.2-.015-2.664,2.077.714.968,1.565-1.351,9.262,3.04,2.219,5.394,4.647,5.625,9.342,8.885,15.344,3.828-5.17,20.231-30.439,27.371-20.031-6.372-4.07-20.115,11.658-21.6,17.682-2.753,11.17,10.7-6.346,12.976-8.16,11.179-8.917,28.981-2.186,28.922,12.836-.029,7.824-5.252,15.584-10.311,21.168-4.307,4.756-7.424,5.734-5.288,12.243-5.274-.786.573,5.227,1.745,6.391a35.1,35.1,0,0,1,6.578,8.979,27.593,27.593,0,0,0,4.448,5.77c1.424,1.407,5.267,3.188,6.222,4.733,2,3.238-.979,10.286,6.065,7.466,3.918-1.57,6.873-9.761,10.065-12.825a41.042,41.042,0,0,1,16.682-9.918c14.281-4.045,24.862,6.246,37.742,10.073,34.707,10.313,13.977,44.067-7.89,56.793-4.729,2.752-9.389,4.252-14.491,5.87-5.658,1.79-7.385,2.633-4.128,7.637,3.1,4.761,7.817,8.933,11.324,13.448,1.833,2.361,2.121,4.986,3.573,7.221a5.96,5.96,0,0,0,1.815,3.67q2.07.572,4.136,1.161c2.613,2.522,1.553,7.381,3.138,10.159,1.779,3.117,5.226,2.739,7.3,5.258,1.509,1.834,1.388,4.978,2.6,7.1,2.656,4.63,6.057,8.39,9.788,12.313,2.393,2.517,1.316,3.215,2.434,5.284q-1.337,1.565.771,2.607A15.1,15.1,0,0,1,613.2,768c1.087,1.683.743,4.75,1.794,6.095,1.448,1.852,3.55-.585,5.278,1.489,1.228,1.477-.137,4.8.512,6.677,1.021,2.958,4.053,5.167,6.012,7.456,3.838,4.489,3.438,9.081,6.508,13.63,3.594,5.322,6.117,8.808,9.715,2.54,3.556-6.2,5.715-11.68,11.205-16.7a71,71,0,0,1,16.4-10.862c12.31-6.1,30.773-2.928,36.13,11.669,4.749,12.947-3.346,27.977-10.9,38.009-9.493,12.615-21.78,20.345-36.183,26.331,1.839,2.583,6.471,12.514,9.671,13.582,3.231,1.078,12.165-3.748,15.477-4.422,8.141-1.66,15.659-1.443,23.784-3.882,7.16-2.149,14.141-2.424,21.265-4.614,5.681-1.746,13.129-3.517,18.308-6.528,6.233-3.624,7.587-12.62,10.034-18.833-2.146,1.339-14.218,10.5-11.982,2.879,1.621-5.524,16.226-12.233,20.661-14.071,3.939-1.634,9.309-3.5,13.548-2.028,4.655,1.617,3.891,5.221,6.8,7.976,5.782,5.483,14.449-5.866,18.831-10.045,4.159-3.967,9.211-7.454,12.908-11.594,3.149-3.527,5.5-6.646,9.405-9.558.914-.682,7.243-4.2,6.332-6.259-1.091-2.465-6.947,1.878-8.564,1.674-10.6-1.339-4.922-17.4-6.148-23.961-1.919-10.272-12.3-21.9-18.935-29.584-5.3,6.383-12.919,13.141-21.48,14.265-8.022,1.053-13.729-3.474-13.015-11.783.285-3.342,3.907-9.955-.881-6.582-1.279.9-6.394,11.438-8.141,10.66-6.13-2.729,12.126-19.9,13.848-21.414,3.278-2.881,11.182-7.668,10.484-12.693-.486-3.5-6.468-8.661-8.481-11.3-18.183-23.86-38.594-45.877-57.9-68.8-4.348-5.162-10.555-19.815-18.312-17.814-4.172,1.078-8.154,5.416-12.147,7.179-5.138,2.268-10.423,3.277-15.971,2.017A20.121,20.121,0,0,1,653.2,597.682c.342-5.9,3.307-10.417,5.459-15.726,3.034-7.48,1.816-8.57,8.635-12.763-11.256-13.95-25.583-25.469-39.478-36.667-13.813-11.131-28.1-22.342-43.723-30.805a228.206,228.206,0,0,1-22.01-13.942c-4.4-3.077-9.5-9.168-14.708-5.578-2.2,1.52-3.633,4.792-5.422,6.822a87.166,87.166,0,0,1-7.937,7.656,180.717,180.717,0,0,1-16.288,12.787c-10.291,7.138-25.586,15.4-38.135,8.9-11.034-5.713-12.232-20.058-10.164-30.923a62.537,62.537,0,0,1,8.038-20.124C479.5,463.918,486.745,457.461,487.234,453.62ZM434.111,852.728c-1.88,4.588-4.845,7.575-5.894,12.628C431.186,861.573,436.29,858.291,434.111,852.728Zm260.313-67.422c-14.648-2.216-30.662,11-39.763,20.664-2.892,3.072-8.323,7.807-9.154,12.065-.71,3.633,1.7,6.024,2.911,9.3,2.1,5.7,1.779,15.458,7.8,18.815,11.6,6.465,32.448-17.023,37.858-24.372C700.429,813.159,713.068,788.128,694.424,785.306Zm83.939,36.975c-10.782-1.5-19.191,12.1-20.672,21.109,5.225-1.423,9.892-4.3,14.789-6.523,3.488-1.578,9.654-2.4,11.3-6.406C785.589,826.05,782.482,822.852,778.362,822.281ZM554.839,794.818c-1.813-.481-9.845,16.288-11.178,18.964-4.034,8.107,1.873,7.913,8.924,9.225,19.887,3.7,39.981,5.5,60.143,6.849,2.069-4.218-5.712-11.056-7.947-14-4.676-6.15-8.043-13.1-12.694-19.352-5.806,7.653-12.914,21.911-23.942,22.526-6.74.377-10.738-5.152-12.162-11.085C555.668,806.629,555.914,795.1,554.839,794.818Zm-8.32-75.181c-6.961-4.017-9.055,10.019-10.85,14.284-4.684,11.131-12.463,17.633-13.7,30.023-.978,9.781-6.258,17.848-15.84,21.22-4.11,1.446-8.731,1.071-12.5,3.512-3.969,2.571-6.054,7.352-8.362,11.26,6.033,3.339,18.745,15.124,25.91,12.624,7.562-2.636,13.515-14.477,22.327-5.7-7.359-1.19-13.906,2.39-17.65,8.713,3.252-1.777,7.753-6.065,11.712-3.812,3.136,1.785,2.6,6.993,7.367,7.034,6.018.05,8.351-9.838,10.322-14.015,4.886-10.353,10.733-20.1,15.184-30.69,1.885-4.482,5.1-9.546,6.1-14.3,1.147-5.452-2.75-10-5.35-14.534-3.193-5.561-6.616-11.053-9.627-16.717C550.323,726.2,548.907,721.015,546.518,719.637Zm35.191,60.548c-5.834-9.882-17.945-1.3-21.335,6.817-2.374,5.679-4.151,19.557.953,24.6,6.109,6.042,15.451-2.692,19.667-7.242,2.548-2.751,6.116-6.8,6.6-10.743C588.236,788.412,584.157,784.333,581.71,780.185ZM919.171,465.848c-15.77,3.818-30.633,9.686-45.378,16.888-7.186,3.51-5.536,8.318-7.036,15.232-1.668,7.7-6.22,14.853-10.958,21-7,9.086-18.3,22.8-30.908,22.883-6.621.042-11.248-4.237-12.843-10.5-.534-2.1-1.079-16.787-.417-16.882-3.455.5-4.9,12.024-5.813,14.612-1.96-4.5.958-9.145,1.294-13.629-19.486,10.407-38.021,21.833-56.344,34.017-9.894,6.58-19.519,13.313-30.13,18.7-2.6,1.317-9.8,3.848-10.831,7.071-.763,2.4,2.087,5.4,2.695,7.914,1.373,5.663.745,9.74,4.241,14.817,2.553,3.708,5.7,7.019,8.485,10.549,7.439,9.417,14.882,18.815,22.484,28.1,15.221,18.6,30.947,36.805,45.382,56.035,5.044-5.821,6.13-12.673,11.246-18.621,4.658-5.42,10.228-10.148,14.522-15.876,8.709-11.617,11.994-26.529,21.552-37.673,4.228-4.93,10.019-9.841,16.837-10.04,6.976-.205,9.2,6.023,14.908,6.988,4.795.812,11.58-7.983,15.625-10.268,5.753-3.254,9.7-6.985,14.809-11.11,6.012-4.854,27.823-21,34.53-12.577,7.786,9.774-6.7,21.651-13.243,26.865-4.237,3.375-9.851,5.984-9.472,11.819.354,5.456,3.527,11.009,3.926,16.725.28,4.011.448,10.676-5.186,9.4-4.832-1.1-9.056-15.246-11.238-19.2-8.416,7.055-15.76,15.284-24.238,22.267-8.371,6.9-16.647,13.6-24.68,20.892-7.709,7-16.406,12.124-23.947,19.269-4.99,4.728-11.751,7.218-17.064,11.71-1.417,1.2-5.783,3.962-6.232,5.909-.526,2.3,1.47,3.59,2.993,5.6a250.768,250.768,0,0,1,15.567,23c1.618,2.726,3.581,7.676,7.346,7.808,2.74.1,6.776-3.688,9.322-4.65,5.067-1.916,15.171-4.537,18.15,1.93l-6.521-1.723c2.882,6.8,2.928,11.682-.512,18.261-2.516,4.807-6.772,9.514-5.534,15.271,1.186,5.517,6.416,9.644,7.357,15.445.639,3.928-.766,5.018-2.489,8.172-1.111,2.036-2.366,6.372-4.179,7.793q-.973-1.807-1.944-3.618c-1.034,4.471-1.254,4.969,3.3,6.259,4.508,1.277,9.032-.292,13.568-.088,4.847.22,9.32,2.419,14.1,2.982,5.865.693,8.183-2.369,13.343-3.417,4.765-.969,9.868.5,14.785-.307,5.671-.929,11.111-2.8,16.575-4.523,6.036-1.906,16.072-1.943,17.323-9.333.777-4.588-.046-9.517.717-14.227a86.694,86.694,0,0,1,4.109-15.447c3.674-10.249,8.123-21.126,14.485-30.033,1.294-1.81,5.629-8.451,8.644-6.4,3.449,2.341-2.605,4.337-3.592,5.348-4.272,4.376-5.854,10.948-8.4,16.342,7.344-3.8,13.111-10.883,21.454-12.659,8.315-1.771,11.064.587,13.716-8.55,5.1-17.578,10.221-35.219,12.846-53.374-7.32,3.189-15.534,8.918-23.8,5.607-7.183-2.878-8.719-10.412-10.246-17.2-2.548,3.272-3.459,7.684-6.516,10.586-2.9-4.735,1.838-10.634,4.083-14.656,3.361-6.021,6.147-12.331,9.254-18.479,5.816-11.509,13.781-20.235,23.323-28.735s5.042-19.953,4.555-31.585c-.665-15.88-1.033-31.642-2.68-47.473-4.671,3.677-13.506,13.361-20.048,8.27a41.2,41.2,0,0,1-5.133-7.3c-1.023-2.881.358-4.715,1.807-7.528,3.768-7.316,6.829-13.89,11.533-20.625,4.2-6.01.253-9.9-3.371-15.29-4.112-6.117-9.224-15.329-16.57-18.1-7.468-2.821-17.272,6.89-23.631,10.425-6.419,3.569-15.34,8.377-22.158,2.982C916.494,481.01,918.464,472.644,919.171,465.848Zm-228.053,312.5c-15.449-7.43-39.893,16.324-44.037,29.646C658.825,794.448,673.113,782.125,691.118,778.352Zm289.856-29.1c2.178-4.658,4.039-7.88-2.424-6.907-6,.9-11.981,5.586-16.637,9.249-11.249,8.85-16.076,17.579-18.867,31.453-.551,2.733-2.287,9.111.868,10.2,3.719,1.282,13.491-6.37,15.791-8.33C970.18,775.988,975.3,761.371,980.974,749.249Zm-239,11.127c22.37-9.128,14.72,23.438,2.585,30.539C733.936,797.131,729.261,765.562,741.974,760.376Zm11.676,6.711c-.68-5.767-5.438-6.175-10.032-3.362-4.808,2.941-5.893,8.331-6.539,13.594l-.113.955c.775,5.6,1.914,10.673,7.825,6.6C749.035,781.956,754.282,772.443,753.65,767.087Zm70.414,2.733c-.6,3.735-3.695,13.078,2.5,12.727C833.455,782.158,825.564,772.422,824.063,769.82Zm-406.71-24.139c-6.624-3.287-18.831-1.945-22.292,5.6-2.054,4.472.925,8.4,3.328,12.057,3.947,6,7.53,12.243,11.546,18.209C418.424,774.524,432.413,753.155,417.353,745.681Zm101.222,13.8c-6.142,7.047-14.081,13.891-18.721,21.954C510.648,779,518.953,771.069,518.575,759.486Zm378.887-47.113c3.926-5.951,10.294-14.228,18.456-10.875,6.465,2.657,10.334,11.775,11.74,18.055-6.6-10.515-13.611-20.645-24.17-7.267-1.282,1.625-13.736,20.188-12.022,21.91.181.182,19.928-13.683,22.291-14.242,10.978-2.6,21.309,7.689,21.373,18.194.06,10.055-7.423,19.011-14.375,25.544-6.6,6.2-17.247,15.329-27.115,13.724-5.294-.862-8.717-4.782-9.971-9.791-.5-1.995.345-9.827-2.111-10.822-2.2,3.133-4.058,6.936-7.553,8.879-.635-5.1,3.666-9.535,6.125-13.562a58.139,58.139,0,0,0,5.636-12.711C888.85,729.917,891.91,720.784,897.462,712.373Zm-329.9,52.59c-1.15,2.91-2.181,5.874-3.112,8.863C570.544,771.356,569.535,771.172,567.562,764.963Zm-73.039-14.252c2.139-4.908-10.726-2.255-13.128-.672-6.346,4.187-4.464,17.186-1.789,22.849C484.337,765.856,491.141,758.474,494.523,750.711Zm76.4,10.459c-2.6.855-.076,9.048-1.008,10.362l-.078.084.222-.139c5.3-3.387,3.287-4.913,1-10Zm349.344-35.438c-7.125-1.315-13.655,2.942-18.882,7.282-8.445,7.01-19.276,20.195-14.28,32.305,8.423,20.413,41.87-16.085,43.921-26.566C932.33,732.1,926.319,726.848,920.271,725.732Zm-71.237,20.381c-3.532-2.014-11.966,2.706-12.9,6.217-1.222,4.591,4.182,9.9,6.187,13.472C846.923,766.394,853.723,748.791,849.033,746.114ZM641.54,689.744l.424.025c3.852.369,6.227,3.263,3.217,6.753-1.4-8.811-11.885,2.492-14.252,5.129,8,.879,19.2,1.889,21.471,11.513,1.853,7.836-4.6,15.682-9.472,21.025-7.617,8.353-25.325,24.551-37.491,15.78-11.255-8.114,1.606-26.6,6.649-34.772a65.13,65.13,0,0,1,16.793-18.126c3.354-2.572,8.436-7.747,13.084-7.3Zm-9.976,16.476c-10.39-.072-17.213,13.5-21.191,21.4-4.5,8.927-8.727,21.366,6.325,17.463,11.627-3.016,21.684-12.2,28.28-21.968,3.472-5.138,5.863-9.561-.229-13.278C641.659,707.949,635.091,706.243,631.564,706.22Zm165.185,25.152c2.91-6.962-7.6-9.835-12.351-9.527-8.232.536-10.29,5.881-12.471,12.941C767,750.724,793.445,739.279,796.749,731.373ZM698.2,662.817c10.736-5.687,23.534-2.37,32.8,4.8,12.229,9.462,16.632,22.293,8.818,36.41-5.853,10.57-16.578,19.974-28.847,21.6-13.4,1.777-22.055-8.264-22.92-21.187a45.865,45.865,0,0,1,4.1-21.429c2.535-5.656,9.73-10.88,10.99-16.688-7.491,1.487-12.469,7.687-18.234,12.154C680.63,672.905,694.681,664.681,698.2,662.817Zm-231.956-1.238c5.8-.68,3.528,3.344,6.411,6.461,2.191,2.37,6.087,3.062,8.445,5.556,6.623,7,3.377,15.86-1.312,23-6.7,10.215-33.5,39.459-43.971,18.98-3.582-7.007-2.121-15.885.508-22.91,1.052-2.812,10.617-15.135,9.167-17.377-3.282,2.377-8.265,9.355-12.616,8.964-5.374-.483,6.76-10.516,7.682-11.173a47.1,47.1,0,0,1,12.993-6.12C457.442,665.657,462.245,662.048,466.245,661.578Zm249.972,5.176c-12.83-1.992-21.823,16.085-24.022,26.49-2.579,12.2,2.151,27.506,16.761,26.949,14.67-.561,28.612-14.993,31.346-29.064C742.645,679.069,726.3,668.318,716.217,666.755ZM481.057,681.077c-1.648-9.292-23.456-10.342-28.582-5.148-7.3,7.4-13.719,17.377-14.95,28.1-1.627,14.191,9.575,13.132,18.752,7.48C463.408,707.114,482.895,691.448,481.057,681.077Zm96.334-55.939c-8.76-8.817-22.2-6.478-31.982-.846a40.87,40.87,0,0,0-12.17,10.471c-1.631,2.146-3.78,5.036-4.272,7.745-.751,4.13,1.333,3.99,2.242,7.33.477,1.754-.881,3,.186,4.718.712,1.141,3.361,1.094,4.327,2.265,2.014,2.431,3.073,6.033,5.249,8.72s3,5.547,4.77,8.488c1.113,1.849,4.6,8.305,6.238,9.3,1.875,1.148,1.215-1.407,3.491-.652.916.3,1.808,1.72,2.572,1.873a16.568,16.568,0,0,0,10.775-.986,69.8,69.8,0,0,0,24.01-15.391c11.523-11.462,20.012-29.108-.4-35.946a37.423,37.423,0,0,0-23.087-.3c-9.135,2.883-16.3,12.031-25.4,13.785C544.094,634.515,569.2,626.431,577.391,625.138ZM1005,627.133c-4.817-1.657-12.437,8.628-15.549,11.5-6.73,6.222-14.571,12.055-16.418,21.562-3.77,19.4,24.018,17.9,30.338,4.792,2.237-4.64.994-10.7.984-15.641C1004.34,641.953,1004.775,634.526,1005,627.133Zm-534.516,38.1c-.665-2.884-6.222-.092-5.586,1.214C466.248,667.133,471.15,668.11,470.485,665.237Zm28.3-328.795c-10.713,2.511-21.42,5-32.052,7.839-8.709,2.328-17.284,6.532-25.964,8.48-2.789.628-6.487-.466-9.027.729-3.7,1.74-4.8,6.013-9.34,7.3-2.52.714-3.923.466-5.922,1.617-2.651,1.529-5.2,4.523-7.9,6.337-3.736,2.509-6.711,2.633-10.529,4.392-2.761,1.272-5,4.689-7.362,6.616a72.045,72.045,0,0,1-11.125,7.086c-3.361,1.885-3.387,4.2-6.074,6.383-1.372,1.117-3.688,1.324-5.1,2.4-1.65,1.262-1.541,2.7-3.61,4.04-2.5,1.619-6.227,1.037-8.5,3.3-1.365,1.361-1.148,3.068-2.1,4.743-.474.838-2.142,1.022-2.693,1.852-2.455,3.7-1.176,5.69-6.306,2.8.639,2.25-2.357,8.372-4.342,9.481-2.6,1.454-5.085-1.484-6.741-.531-2.038,1.174-.039,5.459-1.391,7.267-1.18,1.575-4.562.742-5.894,2.1-2.113,2.159-1.259,4.22-.456,6.77-5.65,1.159-1.487,3.2-4.272,7.3-2.137,3.152-5.466,5.274-7.553,8.923a46.471,46.471,0,0,1-7.906,10.441c-1.116,1.127-2.861,2.066-3.452,3.655-1.088,2.928.943,3.32.876,5.86-.137,5.206-1.577,3.884-4.891,7.04-2.631,2.508-2.887,5.653-3.905,8.925-.37,1.192-1.716,1.712-1.864,3.316-.109,1.185,2.339,1,2.092,2.578-.375,2.374-3.8,4.4-5.19,6.2a59.949,59.949,0,0,0-6.262,9.417c-1.564,3.311-1.152,7-2.066,10.49-.358,1.363-1.735,2.012-1.7,3.487.021,1.009,1.614,1.357,1.574,2.4-.143,3.724-2.2,7-2.968,10.624-.945,4.472-.363,8.182.689,12.474.627,2.558,2.757,7.281,2.471,9.683-.3,2.519-.821,1.234-1.728,3.263-.415.928-.881,2.573-1.37,3.673-1.725,3.89-2.755,5.635,2.027,7.758-1.121.849-5.384,1.133-3.578,3.263.919,1.084,4.617-.424,5.834-.641a4,4,0,0,1-2.323,2.588c3.811,2.617,5.767,2.216,7.189,7.127,1.225,4.229,1.481,9.046,1.659,13.414.156,3.872-.424,7.8-.127,11.658.342,4.425,2.279,4.924,4.285,8.124,3.9,6.225,5.775,15.478,13.038,19.82q1.241-1.849,2.361-.324a11.319,11.319,0,0,1,1.8,1.572c1.805,1.132,2.931,3.292,4.661,4.562,3.573,2.62,5.712,1.454,4.785,6.783,6.446-2.822,21.291,16.409,24.642,9.408.854-1.784-.528-5.835-.766-7.738-.586-4.714-.876-9.476-1.134-14.219-.515-9.533-.609-19.083-.819-28.627-.411-18.73-.4-37.383.573-56.1a218.713,218.713,0,0,1,3.118-25.591c1.215-7.079,3.726-14.723,4.215-21.825-2.015,1.433-3.967,2.92-6.461,3.4-.078-3.582,2.291-4.154,4.281-6.421a25.336,25.336,0,0,0,5.158-8.483c2.882-7.727,5.239-15.644,8.18-23.361,4.625-12.14,12.155-21.483,19.938-31.448,2.181-2.793,2.814-4.2,5.591-6.316a64.631,64.631,0,0,1,7.271-4.7c4.8-2.649,10.563-2.775,15.78-4.368,6.593-2.015,13.054-4.311,19.916-5.281,6.31-.889,12.652-.126,18.991-.532,14.151-.906,26.376,3.186,39.987,6.649-4.57-15.029,10.031-23.641,19.721-32.824,10.544-9.991,22.052-19.071,31.271-30.382-15.145-.809-32.892,9.245-46.52,14.9a272.112,272.112,0,0,0-24.809,11.278c-4,2.146-14.749,10.926-19.7,8.208-12.329-6.773,10.545-22.632,14.719-26.111C476.4,361.825,488.94,349.786,498.784,336.442Zm352.582-.055c1.921,5.38,8.413,7.945,12.546,11.592,6.126,5.407,11.586,11.309,17.16,17.268,3.587,3.835,28.447,22.6,17.622,29.061-4.979,2.972-13.333-3.233-17.468-5.527a188.98,188.98,0,0,0-22.945-10.4c-17.13-6.716-34.758-12.682-52.4-17.891,6.043,9.957,18.458,16.841,27.847,23.307,8.838,6.085,18.478,11.17,26.769,18.018,4.866,4.019,18.152,15.982,9.408,22.942-5.726,4.559-16.924-3.049-22.65-4.929a174.684,174.684,0,0,0-34.805-7.415c-4.669-.546-6.627-2.144-5.942,2.744.394,2.816,3.491,6.205,5.01,8.4,4.325,6.246,8.359,12.975,13.235,18.781,3.815,4.542,12.66,14.684,18.636,16.207,6.173,1.572,17.73-7.159,23.294-9.773,8.178-3.841,17.328-5.609,25.206-9.9,7.91-4.3,17.634-7.127,26.464-9.6,9.485-2.661,18.269-1.508,27.72-.143,6.6.954,11.774.491,17.846,3.836a86.933,86.933,0,0,1,11.029,7.868c6.826,5.305,13.3,10.973,18.556,17.892,12.942,17.04,19.964,40.467,23.525,61.3,4,23.387,3.745,47.036,3.96,70.678.215,23.591-1.777,48.086.95,71.529,4.089-5.465,8.8-2.418,13.756-3.819,4.482-1.265,9.3-4.687,13.911-6.23a73.023,73.023,0,0,0,28.678-18.6c8.019-8.62,11.989-20.594,11.487-32.353-.23-5.369-2.38-10.309-3.091-15.618-.933-6.978-.516-14.066-1.049-21.072-1.132-14.909-10.951-27.078-18.489-39.326-7.4-12.02-13.1-25.226-19.972-37.443-3.151-5.6-8.454-10.112-12.1-15.546-5.036-7.5-9.964-15.2-15.959-21.988-10.607-12.01-23.551-22.774-36.022-32.79-10.837-8.7-22.811-15.915-34.095-23.888-11.927-8.428-26.156-15.628-36.794-25.688-1.466-1.386-2.359-3.238-3.866-4.582q-1.508-.6-3.061-1.055-1.391-1.8-2.691-3.654c-1.7-1.1-5.094-1.2-7.038-1.8-2.727-.835-5.223-2.475-7.652-3.7-3.12-1.573-3.592-2.2-7.551-2.772a30.468,30.468,0,0,1-10.145-3.258C863.77,343.734,858.225,338.87,851.366,336.387ZM317.656,656.7c.487,1.97.873,3.543,1.3,5.268C321.988,659.365,321.988,659.365,317.656,656.7Zm326.06-10.492c6.3-6.32,8-6.535,15.285-1.916-6.57,1.158-10.065,13.52-16.347,16.343-3,1.348-6.3,1.6-7.1-2.728C634.669,653.168,640.969,648.963,643.716,646.206ZM396.241,628.592c1.026-7.943-5.028-13.9-12.546-9.541-10.549,6.114-15.008,14.387-13.621,26.048.611,5.123,1.158,10.254,1.8,15.372C381.747,654.155,394.679,640.694,396.241,628.592ZM648.9,648.931c-3.881,1.717-6.07,3.018-7.983,6.94C643.669,653.63,646.313,651.374,648.9,648.931Zm206.825-18.408c-11.181-1.94-17.875,7.368-23.706,15.7C834.912,648.543,852.765,633.521,855.726,630.524ZM1005.312,613.3c-7.409,3.739-19,13.639-21.058,22.117C991.629,628.835,1001.578,622.535,1005.312,613.3Zm-621.8-.665c-3.605-.215-11.938-3.367-15.05-.9-2.871,2.279-.15,10.921.174,13.893Zm485.536,6.143c-6.139-9.453-20.514-.882-24.867,5.457,3.1.553,6.282-2,9.539-1.868,2.533.1,4.439,1.5,6.769,2.128C864.833,625.662,872.009,623.329,869.052,618.775Zm-83.361-57.681.423,0c7.275.325,4.269,7.393,5.746,11.9,2.112,6.449,7.063,9.434,6.76,16.861-.2,4.842-2.361,9.366-4.995,13.32-5.207,7.809-13.734,15.547-23.2,17.234-10.3,1.837-17.625-4.983-17.283-15.339.076-2.266,8.844-24.88,8.395-25.186-3.678,3.9-5.4,2.663-2.988-2.039,2.6-5.076,7.3-8.68,12.288-11.04,3.6-1.7,11.15-5.894,15.273-5.711ZM461.27,600.054c-.243,5.154-1.145,15.328,6.986,13.95C474.6,612.93,462.986,602.148,461.27,600.054ZM782.552,574.04c-4.956-2.473-7.367-.5-10.922,3.325-5.779,6.21-17.919,22.559-14.146,31.879,2.716,6.711,13.409,3.675,18.267,1.441,7.6-3.495,21.349-15.485,18.089-24.745C792.322,581.626,786.508,576.015,782.552,574.04Zm-107.767,3.3c-3.125-3.287-2.224-3.049-5.474-1.078-1.163.706-2.616,2.884-3.433,3.936a44.339,44.339,0,0,0-6.078,10.322c-9.957,24.333,19.628,25.529,34.323,14.47C698.55,603.341,677.481,580.174,674.784,577.339Zm-390.334,25.5c-.342.655-2.475,3.74-1.663,4.533.652.638,2.895.4,3.429-.338C287.241,605.611,285.3,603.486,284.451,602.837Zm-5.668-12.908c.544,5.053-.31,10.811,5.638,12.781C284.273,597.062,283.753,593.2,278.783,589.929Zm233.04-20.522c-1.761-6.836-10.014-8.124-15.943-7.18-6.116.973-13.8,4.658-15.363,11.258-1.777,7.492,4.773,24.62,14.687,22.947C501.811,595.316,513.378,575.449,511.823,569.407Zm-80.193,23.035c-.616-3.672-11.569-2.213-13.98-1.728C420.9,597.292,426.077,595.507,431.629,592.442Zm169.946-41.6c4.989-1.686,3.637-.218,7.926,1.931,16.8,8.419-8.942,29.9-17.635,33.6-6.448,2.742-13.025,1.856-10.906-6.525.569-2.25,10.124-15.924,8.255-17.447-1.09,1.4-5.238,8.679-6.472,3.928-.68-2.614,4.881-7.751,6.667-9.2A42.444,42.444,0,0,1,601.575,550.842Zm-322.911,29.88q-.86,3.16-1.722,6.318c.627.272,5.715.885,5.671-.347C282.543,584.832,279.368,582.674,278.664,580.722Zm423.583-1.456c1.082,1.423,5.453,9.062,6.973,6C710.756,582.186,704.264,579.26,702.247,579.266Zm224.292-55.626c6.217-.969,15.976,1.5,18.15,8.359-8.812-3.367-16.748-7.548-25.119-.815-6.151,4.948-10.52,13.217-12.451,20.818,8.551-6.617,17.8-14.907,29.268-14.475,19.245.728,5.194,23.585-1.945,29.929-5.529,4.912-14.151,11.338-21.711,11.915-9.467.721-11.156-7.722-12.689-15.137q-8.864,9.411-17.73,18.821c-3.583-5.086,12.239-17.527,14.794-20.852,5.581-7.264,7.2-16.391,11.944-24.136C913.026,531.577,918.677,524.867,926.539,523.641ZM610,562.6c.313-4.338-4.028-5.619-7.835-4.641-8.265,2.12-15.236,17.339-18.358,24.3,7.38-1.473,13.845-5.789,19.024-11.079C604.877,569.1,609.777,565.739,610,562.6ZM442.54,575.635c-2.814-3.765-7.362-15.364-13.247-12.246-1.333.708-5.14,4.994-6.29,6.215-1.476,1.57-4.907,2.938-.617,4.239C428.871,575.81,435.878,575.043,442.54,575.635Zm497.966-24.093c7.747-11.856-13.635-6.614-18.221-4.361-5.782,2.838-14.6,6.912-17.191,13.363-3.064,7.633,1.968,13.288,9.6,11.827C925.085,570.381,934.908,560.11,940.506,551.542Zm-89.719.815c17.245,7.88-8.3,26.922-13.54,16.841C833.254,561.51,842.5,548.573,850.787,552.357ZM786.9,565.922c-5.074-1.144-4.213,2.541-.506,3.986C791.336,571.837,790.851,566.813,786.9,565.922Zm65.842-6.759c-1.85.074-13.55,4.594-11.828,7.657C843.273,571.023,851.813,560.853,852.738,559.163Zm-293.3-35.9c7.751-4.381,10.883-3.331,18.858-.575C607.825,532.9,565,569.845,547,567.236c-16.413-2.377-9.967-21.385-3.575-29.835A53.213,53.213,0,0,1,559.439,523.267ZM698.076,560.8c-1.292-1.82-6.965,1.469-8.31,1.906C688.264,569.019,699.385,562.646,698.076,560.8Zm-115.945-30.83c-3.577-3.5-9.561-3.59-14.177-3.39-10.7.464-18.1,8.43-23.622,16.914-3.679,5.645-7.736,17.31,2.657,18.526,11.395,1.334,25.223-9.984,32.031-17.751C582.617,540.17,587.015,534.749,582.132,529.973Zm152.086.841c-12.25,2.659-23.833,7.913-36.257,9.719-10.866,1.581-19.327-.437-29.2-4.472-10.835-4.428-2.331,3.263,1.113,6.452a122.99,122.99,0,0,1,9.307,10.211c4.426,5.142,6.706,6.417,13.411,5.005,9.032-1.9,14.41-3.054,21.518-9.245C720.836,542.625,727.5,536.691,734.217,530.815ZM279.325,548.541c-.043-2.109,7.3-6.863,7.759-3.589C288.048,551.776,280.539,546.112,279.325,548.541ZM995.34,513.865c-2.735,2.591-22.1,18.365-11.943,21.988,3.164,1.13,10.159-3.957,12.3-6.282C1000.459,524.418,997.9,519.623,995.34,513.865Zm-131.218-26.5c-12.23,4.947-25.754,10.782-37.141,17.426-3.905,2.276-7.535,3.171-9.455,7.482-1.489,3.344-2.322,9.23-2.458,12.889-.371,10.011,8,11.578,15.654,8.01,7.082-3.3,13.38-9.246,18.6-14.98C855.784,511.106,866.273,497.73,864.122,487.368ZM374.134,527.006c7.271-4.22,36.154-31.146,11.063-27.884C378.223,500.03,375.316,521.276,374.134,527.006Zm507.347-246.22c-30.035,11.733-62.677,17.747-94.056,24.783-27.192,6.095-54.339,12.528-81.495,18.809-12.124,2.8-24.864,8.343-37.286,5.816-12.743-2.592-25.071-5.972-37.94-8-14.1-2.226-27.937-5.8-42.014-8.131-13.959-2.315-26.918-7.459-40.688-10.446-27.2-5.9-54.7-9.685-81.729-16.6,1.067,3.232.35,6.659,1.417,9.89a26.964,26.964,0,0,1,1.9-3.939c3.235,5.553-.731,13.22-.785,19.19-.026,2.959.213,3.97-.56,6.867-.438,1.637-2.507,3.973-1.228,5.813,3.491,5.02,22.078-2.374,26.239-3.235,10.827-2.239,23.349-5.927,23.886,9.328.44,12.532-12.991,21.936-20.763,30.21,10.878-3.432,21.174-8.364,32.247-11.212,6.241-1.6,15.081-4.6,21.3-1.534,21.638,10.658-14.944,40.666-22.225,47.819,13.768-1.026,41.152-13.337,40.813,11.338-.23,16.769-15.928,29.72-25.653,41.718,28.8,19.844,59.1,37.092,87.008,58.112,6.486,4.886,11.1,5.3,18.986,4.864,7.51-.411,13.278,1.531,20.358,3.716,15.531,4.792,27.933,1.229,43.127-2.478,15.241-3.719,30.112-6.5,45.556-9.17,15-2.591,26.1-10.118,38.79-18.223,5.544-3.54,10.749-7.981,16.811-10.626,4.855-2.118,11.1-2.477,8-8.34-1.536-2.907-5.673-5.736-7.866-8.437s-4.218-5.508-6.3-8.283c-3.934-5.247-8.1-10.344-11.8-15.758-6.829-9.995-13.5-23.18-7.962-35.3,6.406-14.017,21.014-5.3,31.923-3.16-10.985-10.314-33.451-22.151-28.846-40.476,6.522-25.945,43.156-.277,57.357,3.364-4.666-5.4-11.738-8.734-14.047-15.91-2.121-6.592-.467-14.343,4.9-18.832,13.409-11.221,33.094-3.044,46.359,3.227Q882.358,304.266,881.481,280.786ZM517.075,462.679c-4.889-1.948-16.441-9.443-21.816-7.21-4.668,1.94-6.538,9.58-8.988,13.5q-.384-2.534-.766-5.066c-7.68,9.872-20.721,33.347-9.873,44.868,8.634,9.168,24.063,3.377,33.217-1.673,13.913-7.674,25.622-18.6,35.96-30.546C536.343,470.511,526.682,466.51,517.075,462.679Zm428.962-.243c-2.232-.3-2.486.122-4.894.272s-4.793-.215-7.24-.082c-12.551.691-16.6,20.775-1.944,17.883,9.273-1.831,18.479-8.172,26.042-13.626a23.858,23.858,0,0,0-7.639-2.671q-3.16,2.7-3.618-.75ZM451.992,451.981c1.926-7.89-14.359-2.76-18.3-2.3-6.906.809-11.637.127-11.536,8.55C422.431,480.837,448.623,465.781,451.992,451.981ZM650.98,335.169c9.585-.3,7.5,61.642,7.531,69.03.058,14.336.269,28.687.1,43.022-.048,4.249,2.412,21.505-4.472,19.589-1.967-.547-7.512-9.01-8.125-10.962-1.389-4.432-.284-11.027-.386-15.654q-.435-19.747-.948-39.493c-.364-13.711-1.076-27.442-1.206-41.155-.045-4.753-.754-11.363,1.172-15.822C645.261,342.305,649.329,335.222,650.98,335.169Zm417.255,122.918c-4.79-5.278-4.79-5.278-8.423-3.044C1062.888,455.254,1063.957,460.129,1068.235,458.087ZM706.1,346.17c5.35-.54,5.693,11.069,6.038,13.955.786,6.576-.236,12.888.256,19.173,1.119,14.323,2.738,28.64,2.851,43.017.056,7.254,1.163,17.981-1.9,25-1.334,3.05-2.7,5-6.265,3.361-4.1-1.887-3.814-7.957-4.354-11.6-3.862-26.05-3.481-51.02-1.288-77.116C701.7,358.826,701.26,346.658,706.1,346.17Zm81.5-137.247c5.35,11.57,10.5,23.5,5.384,36.17-1.966,4.87-5.094,9.258-9.7,11.922-3.752,2.17-9.224,2.715-11.5,6.911,21.542-7.5,42.4-10.084,65.145-9.205,8.486.328,27.638-2.449,33.917,4.846,4.537,5.268.21,9.848-5.469,9.8-9.865-.09-19.522-.4-29.5.091-22.536,1.107-42.8,5.208-64.454,11.288-17.8,5-35.291,11.274-52.7,17.438-3.172,1.122-12.647,2.452-14.056,6.023-3.058,7.741,11.912,4.314,14.6,3.549,35.23-10.026,70.633-21.318,106.655-28.237,18.077-3.473,35.854-7.236,53.85-11.191,9.083-1.994,12.083,2.433,14.356,10.9,1.921,7.164,2.675,14.715,3.31,22.083.6,6.942-1.354,19.026,1.738,25.216,1.768,3.538,3.641,3.042,6.978,4.006,3.5,1.013,2.862,1.559,5.044,3.186,4,2.989,7.077,2.229,11.966,3.721,5.6,1.709,11.459,7.562,16.3,10.8,5.653,3.783,10.831,7.652,16.689,10.793,2.41,1.293,5.117,2.884,7.388,4.4.821.548.828,2.214,1.758,2.685A8.673,8.673,0,0,0,968,365.8c1.468,1.252,1.572,3.264,3.027,4.308,1.342.962,2.9.382,4.244,1.022,3.1,1.485,9.239,5.34,8.982,9.437,6.516-6.264,14.881,10,20.053,11.69,4.865,1.588,4.55-.807,8.423,3.58s8.955,7.559,12.64,12.086c3.332,4.094,4.224,5.711,8.255,9.135,3.568,3.031,4.879,7.886,7.906,11,1.577,1.621,3.685,1.735,5.22,3.188,1.442,1.365,1.724,4.234,2.538,5.98,1.948,4.174,4.363,8.482,9.635,8.064a36.29,36.29,0,0,0-2.646-8.028c-1.621-3.716-2.1-.424-2.3-4.679-.158-3.51,2.473-2.638-.523-6.1-1.8-2.082-3.876-3.61-4.4.354-2.269-3.474-1.976-7.166-2.418-11-.09-.779-.85-5-.3-5.57-9.333-.359-11.036-13.989-16.042-20.178-3.141-3.889-6.743-7.3-9.456-11.545-2.853-4.466-4.7-9.2-8.11-13.309-3.076-3.7-4.633-7.71-7.836-10.88-2.968-2.936-5.055-6.039-7.875-9.651-1.041-1.332-2.082-3.541-3.361-4.513-1.118-.849-1.994.4-2.667-.121-.922-.719-6.378-4.652-2.859-5.154a8.89,8.89,0,0,0-1.948-1.257c-1.233-5.167-1.825-4.943-5.436-8.018-3.872-3.3-7.264-4.8-7.983-9.43-3.4,4.329-9.943-8.407,0-.021-.505-2.884-5.795-2.936-7.072-4.158-1.691-1.616-1.895-4.343-2.528-6.452-3.407,2.85-3.428,1.164-5.788-1.572-2.408-2.791-3.778-2.61-6.4-4.22-2.673-1.635-1.556-.727-2.4-4.6-.591-2.721-.8-4.166-3.206-6.026q-.413,3.294-.829,6.59c-1.214-2.227-3.78-2.6-5.264-4.453-.79-.988-1.142-3.722-1.854-4.295-.808-.651-2.5-1.127-3.428-1.779-.473-.331-1.947-2.343-2.563-2.848-.707-.579-2.168.553-3.071-.443-1.292-1.425-.6-3.421-.6-5.09-7.644,1.754-14.613-7.947-17.842-14.064q-.7,2.661-1.4,5.327c-1.092-1.231-2.058-3.783-3.506-4.616-2.11-1.215-1.839-.22-4.161-.763-4.483-1.048-5.87-10.567-9.485-4.883-1.856-6.042-1.7-3.928-6.785-5.7a22.387,22.387,0,0,1-8.3-5.785c-1.14-1.264-2.333-4.73-4.591-5.243a19.243,19.243,0,0,0-1.945-.411c.533.218-1.694,1.149-1.31,1.536a42.9,42.9,0,0,1-10.8-7.96c-.9-.9-3.024-2.369-4.045-2.46-1.683-.15-2.18,1.94-4.159,1.262-2.647-.907-1.408-3.109-2.281-4.766-.818-1.555-.6-4.717-3.055-5.288-1.349-.313-1.145.76-2.027.832-.692.055-2.116,2.087-3.429,2.3-2.962.494-2.831-.851-4.446-1.9-2.035-1.317.51-1.559-2.708-2.468-.815-.23-2.545,1.4-3.265,1.216-1.491-.373-1.87-2.084-3.073-2.578-1.96-.807-3.38-.6-5.6-.924C808.977,217.941,798.106,211.75,787.6,208.923ZM558.657,406.016c-10.1-1.687-24.1,2.8-33.323,6.649-11.142,4.65-22,10.089-32.787,15.5,4.467,4.826,12.54,5.852,18.406,8.049,5.339,2,11.637,6.779,17.051,3.763,5.961-3.323,12.116-10.508,17.042-15.269C550.617,419.325,555.811,413.327,558.657,406.016ZM365.222,367.05c-1.038.39-4.69,1.683-4.192,2.63C362.591,372.639,364.72,368.409,365.222,367.05Zm94.753-90.641c-2.838-.328-3.468,2.645-5.673,3.662-1.742.8-4.4-.706-5.766,1.159-1.207,1.645.227,3.368-1.429,5.305-.979,1.145-3.591,1.472-4.871,2.248-5.7,3.457-10.464,9.1-15.98,12.965-5.252,3.677-7.545,8.24-10.686,13.764q-1.193-1.614-2.39-3.228c-.417.483-.764,3.1-1.209,3.76-.349.518-2.2.517-2.776,1.122-1.334,1.4-2.067,3.337-3.511,4.723-1.2,1.158-2.691,1.335-3.724,2.772-2.092,2.91-1.9,4.816-4.453,7.479a24.6,24.6,0,0,1-7.035,5.336c-3.941,1.973-4.72,2.472-7.163,6.781-2.048,3.608-3.886,7.156-7.141,9.854-1.165.965-3.255,1.632-4.213,2.7-.542.608-1.867,3.289-1.958,3.364-.458.372-.135,1.008-1.109,1.635-1.39.9-3.866-.483-5.094.624-2.071,1.868-.094,3.461,1.492,4.432,2.533,1.547,5.824-.333,7.949-1.627,5.715-3.483,9.982-7.493,16.23-10.314,7.085-3.2,13.005-8.038,20.368-10.8,7.118-2.672,14.579-4.3,21.555-7.368,5.555-2.441,12.181-1.34,16.88-5.049,5.524-4.36,1.782-7.355,2-13.3C450.76,304.626,450.643,287.449,459.975,276.41Zm233.087,39.724c.1-2.291-18.313.09-20.008.189C674.9,317.612,692.772,323.019,693.062,316.134Zm-140.115-36.8c-18.532-.249-37.526-2.61-55.975-.214-.222,3.062,29.072,5.749,32.775,6.474,12.689,2.485,24.711,6.049,37.047,9.812,12.021,3.668,24.484,5.587,36.69,8.514,12.487,3,24.871,6.181,37.516,8.478,8.079,1.467,17.3,3.124,21.192-6.468,1.39-3.424.8-3.241-3.1-4.991-4.1-1.839-8.688-2.415-12.875-4.043a349.606,349.606,0,0,0-35.429-11.172C592.1,280.657,572.207,279.589,552.947,279.33Zm165.826-58.3c-6.953-5.7-6.733-10.472-14.232-2.253-5.171,5.667-10.079,10.966-18.318,9.161-3.488-.765-8.09-2.133-11.083-4.1-2.385-1.573-4.117-5.85-6.479-6.911-4.958-2.226-12.536,8.588-17.253,11.234-7.732,4.339-14.62,4.567-21.9-.39-8.4-5.715-9.876-2.545-16.5,3.533-6.919,6.351-11.873,4.322-17.362-2.452-.82,6.556-.911,13.172-1.14,19.767-.282,8.045,3.441,16.917,11.3,19.6a226.192,226.192,0,0,0,32.4,8.085c-5.156-4.862-10.614-20.437-1.237-24.427,6.3-2.682,8.934,6.858,9.874,11.433,1.241,6.026-4.625,15,.36,18.426,2.682,1.841,7.59,1.477,10.655,2.482,5.233,1.714,9.763,5.206,14.24,8.281,4.127,2.835,9.112,7.13,14.242,7.8,5.383.7,8.817-3.083,12.756-6.176a122.209,122.209,0,0,1,33.815-18.51c3.384-1.223,9.345-1.309,12.153-3.522,3.985-3.137,2.462-9.437,2.054-13.873-1.209-13.14-2.809-26.827-7.087-39.36C733.012,224.283,726.528,227.389,718.773,221.032Zm-39.638,32.815c6.81-4.169,18.716,42.974,9.371,43.661C679.931,298.137,671.753,258.365,679.135,253.847ZM539.929,221.49c-.927.957-2.975-.17-3.892.838-.749.823,1.624,1.9,1.258,2.32-1.614,1.833-3.921,2.976-6.512,4.412-.138-.615-.3-1.226-.472-1.831-.135-.054-3.548,5.583-3.926,5.905-2.467,2.118-5.008,1.27-7.569,2.824-1.471.892-1.883,2.283-3.133,3.233-4.28,3.256-11.743,6.986-16.093,8.059-3.921.965-8.359,6.034-9.5,10.59-3.283-1.961-7.636,2.976-10.576,5-1.96,1.345-9.925,5.467-10.33,7.035-2.2,2.084-5.013,3.61-6.855,6.067,4.643,4.1,10.607-4.347,15.272-6.706a90.814,90.814,0,0,1,24.489-7.883c17.484-3.189,34.352,2,51.623.137C539.192,254.231,537.045,235.805,539.929,221.49Zm166.028,54c-10.628-1.523-6.037-29.088,2.655-22.447C713.32,256.646,714.712,276.748,705.957,275.494Zm51.525-14.817v7.316h0l7.892-3.01-7.892-4.306ZM579.106,220.494a24.3,24.3,0,0,0-26.12,8.2c-7.349,8.99.13,15.46,9.1,18.739,8.877,3.246,18.4,3.8,16.234,15.318l7.734,1.149c-.534-4.934.736-11.775-2.579-15.959-3.407-4.3-11.567-4.958-16.326-7.322-5.234-2.6-8.529-9.864.187-9.657,6.148.147,13.369,4.994,16.7,9.88C585.786,231.878,590.657,223.807,579.106,220.494Zm195.468-.3c-3.709-.32-7.937,1.016-11.257,2.571-1.944.911-6.592,5.408-8.877,3.54-1.733-1.415-.267-4.616-3.605-4.063l4.15,12.532c3.506-6.536,19.193-5.791,13.4,2.429-2.3,3.271-7.134,3.047-9.627,6.122-2.871,3.541-1.546,8.464-1.254,12.558,9.076-4.516,25.537-9.98,27.658-21.533A12.113,12.113,0,0,0,774.575,220.191Zm-192.66-19.854-10.775,4.544q5.388,3.072,10.775,6.142h0V200.337Zm188.716,3.351c-5.9-1.937-11.417-.975-9.8,6.334Z" fill-rule="evenodd"/>
    </g>
  </g>
</svg>
