<svg xmlns="http://www.w3.org/2000/svg" xmlns:xlink="http://www.w3.org/1999/xlink" width="1080" height="1080" viewBox="0 0 1080 1080">
  <defs>
    <clipPath id="clip-reflection">
      <rect width="1080" height="1080"/>
    </clipPath>
  </defs>
  <g id="reflection" clip-path="url(#clip-reflection)">
    <rect width="1080" height="1080" fill="#fff"/>
    <g id="Master_Doodles_Meditating" data-name="Master/Doodles/Meditating" transform="translate(-81 72.104)">
      <path id="Accent" d="M350,371l11.789,119.035,64.187-36.626V567.564c0,2.1-1.248,9.324,0,11.145,1.058,1.544,8.9,1.588,10.752,1.848Q454.874,583.1,473.1,585.1c32,3.534,66.259,8.6,98.386,4.536,27.927-3.531,55-13.463,80.514-25.021q13.436-6.086,26.458-13.042c1.838-.984,8.509-3.307,9.509-5.31.816-1.636-1.1-7.385-1.354-9.106l-3.234-21.749-15.058-101.24,28.445,28.4c2.228,2.225,6.459,8.543,9.543,9.529,2.261.723,7.86-1.515,10.094-1.945l48.32-9.311c3.752-.723,12.209-.7,15.372-2.963,1.7-1.222,1.783-3.706,2.384-6.06q5.893-23.086,11.786-46.17c.707-2.772,4.656-11.512,3.652-14.3-.36-1-2.1-1.685-3.169-2.338l-72.928-44.543-39.951-24.4c-5.578-3.408-12.43-9.546-18.751-11.452-3.923-1.184-9.632-.3-13.693-.413l-24.753-.706c-1.292-.037-5.816-.958-6.9-.2-.905.633-.531,1.516-.827,3.026-.726,3.686-.731,7.661-1.089,11.4-.287,3,.283,8.51-1.07,11.229-.865,1.737.232,1.045-.938,1.885-1.392,1-5.838.678-7.5.87l-24.256,2.818c-9.612,1.116-19.332,3.211-28.99,2.246-14.641-1.461-30.427-1.389-44.8-4.474-3.736-.8-5.083-2.907-7.964-5.784-5.625-5.617-11.193-11.3-16.88-16.857-2.788-2.723-1.594-2.262-4.467-1.228-3.6,1.294-7.253,4.417-10.512,6.4l-37.463,22.819L354.771,368.1,350,371" transform="translate(67.681 58.882)" fill="#ff5678" fill-rule="evenodd"/>
      <path id="Combined-Shape" d="M646.031,52.991c43.557-.49,87.425,8.864,121.908,36.916,28.121,22.877,47.721,60.01,48.7,96.6.478,17.9-4.681,35.519-16.518,49.172-13.724,15.824-33.578,23.586-52.676,30.774-10.6,3.99-21.176,8.054-31.977,11.471-9.969,3.155-21.051,4.469-30.4,9.3-8.455,4.365-11.905,12.446-17.682,19.466-2.6,3.158-5.164,7.809-8.359,10.329-3,2.366-7.3,2.936-10.729,4.441-10.117,4.435-3.074,11.133,4.03,15.244,4.649,2.691,8.959,5.179,14.243,2.924,4.509-1.923,7.845-4.87,12.747-6.114,10.064-2.551,21.9-2.546,31.546,1.494,9.9,4.149,20.563,4.969,30.1,10.037,20.528,10.9,39.759,24.961,59.121,37.783,10.419,6.9,20.464,14.709,31.336,20.872,8.792,4.982,17.987,9.186,27,13.735,8.849,4.467,12.677,10.778,18.687,18.172,2.448,3.014,3.2,7.224,6.033,9.851,3.017,2.795,8.247,3.811,11.943,5.585,20.262,9.726,42.873,20.621,65.5,22.738a250.18,250.18,0,0,0,29.041,1.366c3.163-.077,7.85-.174,8.388-3.909.491-3.408-3.064-9.885-4.183-12.938-7.024-19.156-15.185-37.1-12.685-58.041,1.973-16.524,8.352-35.058,22.189-45.343a17.99,17.99,0,0,1,6.1-3.222c1.448-.4,3.507-.013,4.825-.768,2.681-1.536,2.2-3.627,2.079-6.676-.279-6.846-1.117-14.107,4.234-19.533,6.413-6.5,18.178-2.268,24.906,1.648,7.73,4.5,13.733,11.417,18.666,18.776,6.042,9.009,12.315,18.683,16.3,28.812,4.225,10.734,5.158,22.557,10.5,32.885,1.363-11.143,2.484-22.305,4.351-33.382,1.44-8.548,2.492-19.036,7.964-26.141,6.15-7.983,13.29-1.251,16.117,5.858,3.53,8.87,2.956,18.818,3.612,28.164,3.278-7.938,9.758-31.064,21.459-29.385,7.759,1.113,11.86,12.611,13.531,19.024,2.385,9.163,2.659,18.737,2.948,28.149,1.389,45.3-15.783,89.748-39.382,127.694-20.711,33.3-48.932,58.99-87.283,69.817a165.164,165.164,0,0,1-59.62,5.956c-21.6-1.986-42.252-8.992-62.33-16.88-19.147-7.523-38.423-14.527-55.831-25.578-2.747-1.743-13.223-10.569-16.7-9.7-5.683,1.418-2.66,10.576-10.938,8.971-6.482-1.256-12.3-7.541-16.947-11.773-6.194-5.637-12.242-11.427-18.4-17.1-16.442-15.132-32.954-30.074-49.024-45.618-2.443,14.912,2.274,30.171,4.4,44.845a235.478,235.478,0,0,0,10.864,45.015c2.687,7.6,5.458,15.075,7.223,22.955.8,3.562,1.085,7.189,4.1,9.583,4.834,3.839,12.989,5.117,18.637,7.431,7.019,2.876,13.948,5.972,21.05,8.642,14.878,5.6,27.515,14.068,41.218,21.942,26.793,15.4,55.426,27.585,80.918,45.224C956.8,707.1,981.2,724,998.321,747.995c14.094,19.758,29.122,43.693,29.607,68.744.534,27.658-24.687,46.7-46.431,59.342-13.608,7.912-26.546,4.558-41.429,4.348-16.811-.236-33.658,1.762-50.508,1.656a598.173,598.173,0,0,1-98.74-8.414c-16.036-2.767-32.282-3.741-48.208-7.238-15.534-3.412-30.259-9.3-45.254-14.472-14.275-4.918-28.434-9.446-42.087-16-6.795-3.26-13.666-6.654-20.183-10.443-5.025-2.921-9.26-7.114-14.569-9.56-6.572-3.027-11.681.659-18.239,2.046-7.122,1.506-14.133,3.665-21.253,5.277-15.837,3.585-30.934,9.8-46.7,13.651-8.129,1.986-16.429,2.548-24.638,4.048-7.5,1.37-14.825,3.552-22.3,5.032-16.609,3.286-33.552,5.268-50.071,8.922-15.509,3.43-29.971,9-45.739,11.487-16.434,2.6-32.539,7.144-48.925,10.05-15.516,2.753-32.239,6.555-48.021,6.338-14.666-.2-30.588.376-44.672-4.293-27.086-8.979-40.575-38.243-35.512-65.507,5.217-28.108,26.884-50.387,48.318-67.618,24.7-19.854,51.992-37.119,78.876-53.836,28.328-17.616,58.153-30.959,88.729-44.061,6.519-2.793,12.876-6.087,19.573-8.422,4.39-1.53,9.345-2.6,13.31-5.127,5.623-3.588,2.269-7.966,3.721-13.429,1.424-5.356,6.393-9.957,8.3-15.459,4.61-13.285,4.9-27.627,9.059-41.047,2.256-7.274,5.093-14.376,6.114-21.973,1.074-7.991.507-16.092.507-24.123-13.254,8.246-24.648,19.1-37.864,27.442-5.8,3.661-11.034,8.068-16.726,11.8-6.91,4.539-6.476-1.678-11.643-4.293-1.351,3.172-2.18,6.519-3.3,9.773h0l-.092-.228q-1.614-3.9-3.473-.078l-.106.225h0l.291-3.269c-1.724,2.248-5.6,3.343-4.272,6.895-4.526,0-5.628.258-9.609,3.551-4.014,3.323-7.193,6.313-11.9,8.7-11.724,5.956-22.933,12.815-34.852,18.4-22.644,10.612-46.918,18.5-71.831,21.555-11.186,1.371-22.451,1.911-33.657,3.08-11.355,1.184-22.412,2.547-33.865,1.8A147.837,147.837,0,0,1,88.043,519.254c-6.693-22.512-7.759-45.636-6.68-68.963.555-12.008,2.846-23.837,2.587-35.863-.234-10.884.635-21.083,4.4-31.386,2.611-7.143,7.815-18.826,16.123-20.727,9.8-2.24,11.947,11.978,12.522,18.721,1,11.665-1.176,23.394-1.2,35.07-.009,4.622.025,9.136-.343,13.739-.2,2.472-1.275,7.792.827,9.864,5.16-28.8,7.956-57.357,20.271-84.277,2.624-5.735,8.849-19.139,16.693-12.22,9.3,8.2,1.328,23.064,6.088,33.081,8.714-16.45,20.413-36.8,39.457-42.53,10.28-3.092,23.3-.912,32.2,5.022,8.2,5.467,17.523,17.134,20.664,26.548,1.233,3.7.374,9.167,2.628,12.341,2.266,3.193,7.276,4.158,9.808,7.7,7.331,10.262,8.587,24.8,7.492,36.944-1.216,13.5-6.511,25.441-14.06,36.569a88.073,88.073,0,0,1-13.361,15.886c-3.975,3.611-9.078,6.417-11.959,11.088,10,2.463,20.647-.62,30.659-1.564,11.616-1.1,23.023-2.429,34.526-4.458A417.791,417.791,0,0,0,366,462.069c10.612-3.791,20.647-8.149,30.113-14.327,6.694-4.369,17.4-8.417,19.559-16.7,1.211-4.651,1.6-7.828,5.14-11.323,3.568-3.524,8.014-6.129,12.118-8.965,9.441-6.52,17.833-14.608,26.515-22.1,16.868-14.549,32.785-32.24,52.239-43.362,9.263-5.3,19.319-8.5,30.058-7.76,11.969.83,23.862,2.805,35.836,3.737,6.866.534,14.385,2.112,17.177-5.871,1.286-3.673,1.874-9.593.531-13.315-1.434-3.98-5.052-5.195-8.642-6.848-2.4-1.1-6.982-4.593-9.716-3.6-1.744.636-1.957,2.487-3.113,3.728-6.258,6.718-11.541-2.973-18.6.024-10.407,4.421-20.067,10.935-30.605,15.364a156.842,156.842,0,0,1-22.065,7.822c-14.339,3.635-30.557,3.233-34.944-13.646-2.785-10.717-.977-22.127-1-33.043-.018-9.994-5.635-8.667-13.8-7.754-26.341,2.941-61.382,4.8-83.721-12.067-27.65-20.875-20.851-61.252,1.82-82.665,28.074-26.518,66.649-36.707,104.282-36.157,22.591.33,45.864,2.408,67.959-3.559,5.2-1.4,9.251-3.948,13.844-6.6,3.654-2.113,8.525-2.952,11.237-6.34,4.848-6.057,1.808-15.128.919-22-2.192-16.937.259-35.7,14.992-46.428C601.193,55.9,625.589,53.222,646.031,52.991Zm120.115,564.8c-3.879-1.64-9.607-3.177-13.157-.021-2.763,2.457-4.493,6.494-7.385,9.155-.185-1.632-.524-3.312-2.116-4.171,1.394,4.029-2.653,5.068-4.8,7.388-2.358,2.54-2.273,6.035-6.5,5.225-2.582-.494-5.174-4.573-6.239,1.095-.53,2.829,2.743,4.147-1.5,5.589,1.671-9.327-8.2,1.559-10.5,2.674-1.507.731-3.155-.267-4.556.57-1.359.814-2.349,3.673-3.483,4.74-1.013.954-1.593-.045-2.782,1.652-.865,1.235-.685,3.467-1.332,4.884l-3.232-2.437c-.213,5.415-6.922,1.519-5.5,5.723-5.564-3.564-13.493,4.712-17.672,7.439C670.4,670.55,664.743,673,659.43,675.7c-8.961,4.554-18.331,6.582-28.272,7.409-4.613.383-9.552,1.365-14.177.779-3.8-.482-6.245-2.765-9.683-4.14.9,6.915-7.836,3.142-8.933-1.063a6.417,6.417,0,0,1-1.316,2.042c-.291.156-.82-4.754-3.785-2.509-3.395,2.569,1.417,3.88-4.582,4.218-8.115.456-11.434-8.526-19.888-7.4q.815,1.565,1.633,3.129c-2.427.764-9.3.047-9.084-3.513-.156.246-1.576,2.953-2.325,3.191-.17.055-1.341-3-1.592-3.272-3.458,2.674-5.325,3.188-8.455-.125-.944-1-3.191-5.669-4.971-4.579-.041.024.9,3.866.875,4.171-5.628-1.321-10.058-5.23-13.26-9.907-.352,1.252-.714,6.6-2.582,6.74q-.654-2.029-1.308-4.06c-2.138,1.948-6.922.617-9.164-.489-3.651-1.8-3.5-3.929-4.8-7.356h0l-5.838,2.661q-.383-2.295-.767-4.587c-6.642,4.244-15.36-4.937-20.107-8.662-6.036-4.735-10.262-11.7-17.9-7.384-15.385,8.7-30.665,17.2-46.481,25.126-32.95,16.514-66.206,33.275-96.876,53.826-13.552,9.081-26.588,18.9-40.138,28a230.087,230.087,0,0,0-35.466,28.9c-17.28,17.464-36.646,45.955-20.86,70.38,15.7,24.287,57.813,19.063,82.021,15.318,32.421-5.015,64.33-13.888,96.878-17.871,7.289-.891,14.294-4.737,21.546-6.344,7.412-1.641,14.9-2.879,22.4-4.071,16.368-2.606,32.568-5.964,48.88-8.876A416.772,416.772,0,0,0,548.615,814.5c15.418-4.644,31.556-6.7,46.825-11.733,15.343-5.06,30.308-10.875,45.864-15.363s31.222-8.553,46.714-13.243c31.422-9.515,62.468-19.071,95.047-24.037-5.5-5.372-16.689-5.545-23.72-8.269-22.329-8.65-46.031-17.989-66.083-31.248-9.6-6.344-15.621-9.868-27.251-6.534-10.965,3.143-22.218,6.19-33.381,8.552-46.591,9.856-91.991,24.256-137.172,39.183-5.168,1.707-9.44,2.222-13.244,6.508-2.988,3.365-4.958,7.539-7.486,11.234a183.428,183.428,0,0,1-22.451,26.215c-7.867,7.775-15.736,15.578-23.958,22.977-6.308,5.68-13.806,12.8-22.452,14.389-9.217,1.691-11.218-6.981-18.35-10.118-4.152-1.826-7.032-1.7-9.052-6.545-1.588-3.807-1.956-9.244-2.308-13.349-.932-10.861,3.405-22.736,7.31-32.721,3.514-8.99,7.451-18.875,13.25-26.6,2.591-3.454,4.021-7.4,6.469-10.956,2.917-4.231,6.354-8.009,9.17-12.338,5.865-9.018,11.781-18.065,18.937-26.137,6.588-7.43,14.956-14.385,24.4-17.8,9.626-3.482,20.173-2.576,30.1-1.049,11.794,1.814,22.451,6.064,33.383,10.678,5.406,2.282,10.987,4.163,16.082,7.1,3.917,2.257,7.516,4.678,11.895,5.984,9.675,2.888,21.016,4.526,31.029,5.479,10.16.965,22.784-5.043,32.573-7.769,23.638-6.586,47.69-10.923,71.78-15.453,22.807-4.289,49.314-11.449,72.173-3.906,18.737,6.183,32.4,22.122,45.654,35.9,7.148,7.432,13.971,15.139,20.993,22.667,6.876,7.371,14.285,5.128,23.271,3.818,6.334-.924,21.192.266,18.577,10.578-1.756,6.926-16.878,5.964-22.176,6.607-11.916,1.445-24.026,2.433-35.626,5.656-12.172,3.382-23.5,6.613-36.151,7.763-24.592,2.234-47.378,8.83-70.709,16.691-22.167,7.469-45.152,12.9-66.781,21.887,24.441,10.37,52.688,12.727,77.376,18.892,5.817,1.452,10.575,5.117,16.232,6.782,6.478,1.906,13.214,3.52,19.835,4.918,15.487,3.273,31.185,5.562,46.886,7.527,27.831,3.484,55.565,6.291,83.183,11.3,28.644,5.2,55.722,7.423,84.787,5.066,5.436-.44,11.6-.029,16.889-1.519,4.345-1.227,7.535-4.664,10.888-7.493,8.853-7.472,19.313-15.36,25.449-25.374,6.389-10.428,1.041-24.342-3.89-34.366a204.384,204.384,0,0,0-19.736-31.984c-14.382-19.1-34.623-32.9-54.063-46.339-10.9-7.535-22.2-14.4-33.547-21.239-11.147-6.718-23.457-11.246-34.453-18.211-10.791-6.835-22.222-12.764-32.794-19.925-11.566-7.835-22.667-15.438-35.49-21.127C787.741,630.978,777.789,622.707,766.146,617.788Zm-248.4,88.375c-20.871-4.754-49.413-17.247-68.351-1.077-4.5,3.845-7.382,9.156-11.493,13.225-3.779,3.739-5.111,8.41-7.494,13.1-6.339,12.491-12.244,25.105-18.1,37.837-4.122,8.957-8.868,18.65-11.439,28.242-2.509,9.358,5.28,5.334,10.422,2.274,6.864-4.086,12.825-9.418,19.508-13.752,10.56-6.845,18.585-15.417,27.32-24.476,9.448-9.8,17.784-19.639,28.289-28.49C496.888,724.221,506.339,713.8,517.751,706.162Zm233.161-11.617c-17.587-6.014-35.656-.5-53.2,2.716-.508,3.925,24.529,12.17,27.73,13.486,18.546,7.618,36.273,17.085,55.313,23.51a37.934,37.934,0,0,1,12.909,6.937c2.3,1.96,4,3.742,6.934,4.507,2.274.59,11.9,1.376,13.142-1.5,1.788-4.157-18.2-17.207-21.429-20.073C779.925,713.14,766.911,700.017,750.912,694.546Zm-197.363,17.1c-5.765-1.884-11.033-4.02-16.837-1.085-5.16,2.609-9.091,7.278-13.669,10.715,5.028-.2,9.374-2.921,14.05-4.449C542.578,715.03,548.371,714.357,553.548,711.644ZM740.714,593.869c-1.737-2.917-2.3-2.416-5.805-2.148a94.162,94.162,0,0,1-10.538.212c-3.212-.1-4.421,1.548-6.8,1.919-.838.13-2.941-1.161-3.93-1.359-2.019-.405-4.585.09-6.66.081q-6.764-.031-13.509.322c-4.643.248-10.6-.868-15.069.1-2.865.617-2.23,2.356-3.612,2.745-1.053.3-1-.37-1.951-.308.867-.055-1.911-1.776-1.8-1.746-2.138-.582-5.933.734-8.424.418-3.352-.427-4.331.519-7.286.97-5.363.819-11.465-.35-16.926-.1-6.377.3-12.695.912-19.077,1.076-3.624.093-10.124-.346-12.659,2.877-1.822-4.254-11.558-.46-15.214-.455-8.015.009-15.952-.156-23.971.242-3.806.189-7.632.389-11.419.819-2.958.334-6.519,2.156-9.4,2.142-1.694-.008-2.566-1.118-4.665-1.244a36.116,36.116,0,0,0-4.65.539c-4.348.371-8.713.467-13.043,1.059-3.432.469-6.373,2.2-9.421,2.924-2,.477-5.986-.4-8.989.039-1.826.269-7.544,1.323-5.4,4.37,1.893,2.686-1.486,4.3-.58,6.656,1.029,2.682,5.412,2.079,7.51,1.881,4.125-.391,8.1-1.361,12.169-2.021,3.87-.627,7.1.14,10.939.485,8.725.785,17.375-2.213,26.173-1.888,2.059.076,6.023.718,7.587.1,2.117-.832,1.95-1.517,3.268-4.039,2.921,6.3,4.88,2.3,9.575,2.025,2.976-.176,2.039,1.386,4.145,1.856,1.7.381,4.569-.891,6.315-1.661.774-.341,3.471-2.552,4.262-2.374.69.155.619,1.243,1.088,1.4.52.178.541,1.557,1.295,1.736,1.047.248,1.513-1.188,2.243-1.312,3.3-.558,4.808.961,6.625-2.437.437,2.768.892,3.023,3.441,3.535.982.2,1.821-1.184,2.24-1.093,2.324.5,2.55,1.445,5.008,1.076,1.915-.288,10.491-6,11.168-1.694q2.368-1.158,4.736-2.315c-1.009,5.347,9.292,2.459,12.4,1.793a2.308,2.308,0,0,0,2.948-.729h0l.721-1.241c2.1-.21,1.1.244,2.452.38.109.01.469,1.265,1.43,1.337,1.3.1,1.533-.68,2.451-1.139,2.476-1.239,1.655-2.105,5.6-1.654a42.655,42.655,0,0,0,4.6.784,6.019,6.019,0,0,0,1.808-.337c-1.629-1.116-.954-4.531-1.04-6.024.943.02,3.427.59,2.007,2.1a4.391,4.391,0,0,0-.613,3.807,9.223,9.223,0,0,1,2.749-.716l-.119.005c.015.068,4.295.484,3.932.784l-.011.005.067-.022c.592-.2,1.83-.654,1.574-.736l-.061-.011c.166.013,1.028-.821,2.112-.682,1.257.161,1.61,2.293,3.1,2.321-1.241-3.948,3.712-3.592,5.545-5.848-.342,6.9,3.432,2.969,4.838-.822.844,2.109.172,5.038,2.2,6.331,2.224,1.42,6.817-1.053,8.057-2.82,1.346,5.322,4.73-1.932,5.1,2.451,1.364-1.42.418-4.486,2.791-4.449,1.77.026,1.99,2.9,3.288,3.679,2.612,1.561,2.841-.216,5.01-.653,2.465-.494,4.43.667,7.029.616,2.5-.049,5.064-.686,7.595-.763,2.406-.072,4.142-1.241,6.354-1.431,1.795-.153,4.8,1.975,6.3,1.032,2.426-1.526-.106-4.282-2.165-4.147C742.911,600.529,742.435,596.762,740.714,593.869ZM216.9,348.52c-16.752-2.286-30.657,10.057-39.689,23.022-10.084,14.479-16.253,32.225-19.018,49.552-1.461,9.156-3.459,20.632-1.892,29.857.592,3.484,7.558,12.521,1.222,13.511-6.847,1.07-10.829-11.759-11.464-16.131-1.235-8.5-.469-17.528-.426-26.08.109-21.322,2.87-42.2,3.909-63.443-5.139-1.383-12.141,27.818-13.009,31.806-2.382,10.936-3.591,22.112-5.3,33.165s-4.135,22.106-5.437,33.215c-.7,5.983-2.511,16.811-10.251,9.32-5.228-5.061-7.99-14.166-9.123-21-3.761-22.686,2.2-45.955.313-68.79-11,4.441-11.321,21.772-12.878,31.524a333.314,333.314,0,0,0-3.824,42.86c-.69,23.853.939,47.3,9.534,69.786,8,20.929,21.567,39.209,38.245,54.074,8.531,7.6,18.437,12.356,28.6,17.376,4.7,2.325,10.957,6.306,16.278,6.646,4.933.315,8.882-1.9,13.894-1.06,4.5.751,7.481-1.956,9.956,2.333,1.685,2.922,1.731,4.432,5.511,1.635.223-.165-.91-1.277.209-1.871.64-.338,4.66-.121,4.98-.071.961.151,1.369-.224,2.338.093,1.063.35.668,2.182,1.262,2.346,1.4.383,2.9-1.346,4.573-.995,1.6.336,2.467,2.6,4.351,3a18.89,18.89,0,0,1-1.445-3.158,44.361,44.361,0,0,0,8.412.939c2.925-.049,5.2-1.358,8.023-1.675,2.345-.265,4.568.587,6.95.338,3.339-.349,6.8-1.835,10.115-2.5a140.46,140.46,0,0,0,18.543-4.989c5.079-1.747,6.178,3.029,10.68,2.148-1.769-4.976,1.113-5.275,5.321-6.1,4.318-.842,8.282-2.462,12.59-3.375a11.245,11.245,0,0,0,3.3.1,15.919,15.919,0,0,0,2.959-2.456c2.029-.915,4.577-.09,6.626-.95,1.74-.73,2.655-3.076,4.83-2.716,1.932.32,2.3,2.734,3.754,3.721,0-5.817,3.532-5.928,8.1-7.177,2.439-.668,5.543-3.386,7.893-3.581,1.711-.143,2.549,1.65,3.369,1.429-.351-5.365,9.784-8.265,13.449-9.753,7.26-2.948,14.712-6.056,21.656-9.677,4.167-2.173,8.034-4.465,12.443-6.136,2.969-1.125,4.76-2.872,7.258-4.092,1.51-.739,3.579-.146,5.028-1.041.8-.492,1.051-1.822,1.8-2.407,2.159-1.682,4.721-2.405,7.169-3.641,5.47-2.763,3.468-9.488,2.914-14.3-.9-7.826-.983-15.809-1.312-23.677-.677-16.211-2.515-32.309-3.974-48.461-36.1,26.105-79.544,40.3-123.567,46.069-21.419,2.8-45.616,6.5-67.072,2.483-4.338-.813-15.169-2.218-16.438-7.161-1.157-4.511,5.735-9.962,8.437-12.387,9.127-8.191,17.949-14.393,25.533-24.311,8.7-11.379,16.309-24.763,18.343-39.156,1.4-9.894-.552-25.121-14.365-22.426-10.782,2.1-7.735,16.9-7.1,24.691,1.576,19.467-12.568,44.895-31.346,51.964-28.268,10.64-35.943-36.836-33.072-54.973,2.13-13.452,8.657-27.795,20.109-35.817a30.07,30.07,0,0,1,23.209-5.023c6.519,1.393,16,6.073,21.867.227,6.442-6.422-4.674-12.25-7.5-17.379C229.639,351.275,224.055,349.5,216.9,348.52ZM712.926,599.957c1.931,1.647,1.676,1.585.262,3.755C711.482,601.95,711.315,602.639,712.926,599.957Zm-416.769-8.979c.48-1.809-1.388,3.659.34,2.755Q300.03,592.367,296.157,590.979Zm730.7-249.934c11.143,20.989,28.766,37.1,35.517,60.468,5.5,19.049,10.983,43.987.115,62.162-4.454,7.449-12,14.812-21.36,13.886-8.833-.876-14.818-9.105-18.955-16.173-10.807-18.459-13.632-40.9-12.552-61.959.272-5.313,8.606-31.356,2.426-31.852-5.627-.451-11.393,10.417-13.688,14.413a45.275,45.275,0,0,0-6.126,27.4c1.095,11.226,5.66,21.8,9.323,32.349a124.627,124.627,0,0,1,4.56,16.568c.636,3.189.323,9.315,2.32,11.934,2.293,3.007,6.528,1.11,7.981,5.14,1.146,3.174-1.307,7.179-3.35,9.365-5.727,6.12-15.792,9.806-23.811,11.4-10.622,2.108-22.054.311-32.651-1.173a205.281,205.281,0,0,1-34.437-7.865c-20.681-6.663-40.659-16.994-55.053-33.675-4.169,19.416-10.774,38.174-16.32,57.211-1.631,5.595-7.337,16.8-3.213,22.061,3.867,4.934,13.293,8.363,18.794,10.994,6.961,3.328,14.256,5.582,21.141,9.21,6.771,3.571,13.388,7.283,20.588,9.948,15.29,5.661,31.552,10.729,47.331,14.835,6.422,1.67,13.158,2.07,19.478,4.137,2.376.779,4.51,2.54,6.791,3.244,2.926.9.673-.034,3.281-.084a30.911,30.911,0,0,1,4.267-.075c16.08,1.76,31.142-1.73,46.624-6.354,63.679-19.017,95.287-84.075,111-143.74a134.228,134.228,0,0,0,4.107-31.461c.194-8.712.715-17.964-2.355-26.285-.681-1.842-2.306-7.059-4.506-7.822-3.03-1.049-4.495,2.491-5.858,4.72-4.914,8.035-7.3,17.216-9.62,26.264-2.2,8.617-3.01,18.611-6.963,26.624-3.987,8.08-7.2,1.46-7.791-4.532-.9-9.169.938-18.719.863-27.944-.05-6.225-.419-12.442-.681-18.661-.107-2.523.361-13.38-2.558-14.839-3.788-1.9-4.847,5.124-5.378,7.654-3.147,14.966-4.315,30.4-6.944,45.471-1.485,8.518-3.335,16.995-5.045,25.471-.746,3.7-2.486,15.809-7.558,16.261-4.586.409-4.741-9.6-4.749-12.907v-.322c-.012-8.763,1.246-17.477-.576-26.155a154.124,154.124,0,0,0-20.326-49.661C1052.406,353.285,1043.5,342.717,1026.862,341.044ZM732.831,541.415c-2.708-1.936-5.758-.566-8.589.092-4.34,1.009-7.854-.153-12.219-.372-9.675-.484-19.949.35-29.623.969-16.929,1.084-33.675,1.043-51.176.98-4.021-.016-25.152-2.671-25.874,2.78-4.9-3.986-11.7-2.215-17.328-1.352-6.029.925-11.655-.225-17.683-.072-7.333.186-14.669.589-21.985,1.152-3.484.269-38.59,2.53-37.765,6.637,1.407,7-5.4,12.723,6.026,11.063,3.929-.572,7.742-.358,11.571-1.274,4.051-.97,3.134-1.431,6.328.161-.208-.1,4.366-1.806,4.074-1.817,1.587.058,3.111,1.767,4.8,1.54l1.853.228h0l.446-1.62c.511-.093,1.948,1.143,2.292.893-.131.1,2.281-2.438,1.47-2.231,2.562-.655,2.493.5,5.025,1.518,2.459.987,5.564.569,8.183.357,7.768-.632,14.969-2.375,22.835-2.148,1.891.054,4.082.422,5.958.034.547-.114,1.2-1.156,1.783-1.071,3.147.464,1.606-.395,1.36,2.048.005-.054,4.159-1.81,4.518-3.189,5.071,4.272,10.992,2.454,16.734,1.374,3.646-.686,8.1,2.325,9.792-1.03a12.849,12.849,0,0,0,3.311,3.23c.182-.937,1.21-6.835.554-6.066l0,0,.176-.2c2.75-3.014,3.736.877,5.36,2.111l.1.075c1.959,1.325,4.684.92,6.877.712,5.746-.548,7.259-1.7,11.417,2.509,1.028-1.11,1.7-3.724,2.706-4.547,1.734-1.422,2.167.513,1.476,2.557,2.294-1.028,4.116-1.83,5.175,1.114q3.419-2.6,6.834-5.194c.712,2.284,1.561,3.884,3.534,1.374-1.335,3.889,2.388,1.118,3.691,1.18.487.022.93-.752,1.36-.672.4.073.613,1.287,1.028,1.358.649.109.926,1.493,1.77,1.561.91.073.135-1.7.322-1.842,1.261-.957,1.605-3.875,3.206-5.108,2.08,5.051,2.591,6.186,7.329,2.084,2.35,3.8,4.364,4.364,8.3,2.553,1.151-.53,2.086-2.109,3.56-1.939,1.963.229-.3,3.008-1.857,2.736,3.886,3.631,10.071.481,14.581.144-.275.021,3.037-.718,2.392-.46,3.981-1.587,6.883-.684,10.787-.063,2.54.405,3.947.665,5.537-1.677C737.353,551.38,736,543.683,732.831,541.415ZM490.757,505.856c9.254-10.307-7.253-10.645-5.508-3.828-3.916-4.72-8.138-3.838-13.8-3.318-5.965.549-11.921.9-17.877,1.5-2.385.24-25.1-.261-23.665,5.8-.174-.739,4.378,1.928,3.819,1.7,3.989,1.614,6.239,1.514,8.292-2.709,1.083,1.324,1.181,2.561,1.358,4.2a10.8,10.8,0,0,1,3.3-2.529q.118,1.658.238,3.314c2.581-2.838,8.036-.464,11.144-.5,3.836-.041,5.772-1.416,8.9-3.576.669,1.011-.376,2.779-.461,3.774,2.971-1.134,6.125-.815,9.161-1.564a10.219,10.219,0,0,0,3.54-1.244q1.436-1.439,2.031.552C484.932,507.98,487.426,509.566,490.757,505.856ZM731.54,484.892c-4.886-4.377-19.055-1.013-24.95-.71-8.655.446-17.264.79-25.915,1.427-8.426.62-16.908.216-25.392.784-3.607.241-8.475-.431-11.9.442-3.3.839-3.874,2.567-7.65,2.04-7.124-1-15.755-1.169-22.882.452-1.126.257-3.752,2.175-4.645,2.1-.488-.038-2.709-1.991-3.781-2.21-3.244-.663-6.43,1.435-9.775.51-2.484-.687-2.365,2.091-3.518,3.424-3-4.566-10.555-3.746-15.162-3.291-6.119.6-11.586,2.036-17.583,1.539-7.689-.636-16.295.763-23.974,1.43-4.633.4-12.218-.405-16.428,1.776-6.152,3.187-2.766,10.442,2.757,11.748,3.669.866,6.727-.966,10.268-1.35a27.946,27.946,0,0,1,6.583.322c3.018.349,7.464-.442,10.673-1.2,3.631-.862,6.381-.558,10.1-.634,4.194-.085,14.122,1.093,15.622-3.833,3.366,3.889,9.92-1.848,12.082,2.179,2.227-2.436,3.388-.6,6-.092q-.245-1.968-.492-3.936c3.345,3.145,5.075,2.259,7.772,5.478,2.07-3.5,5.812-.064,7.59-4.21,1.761,1.42,3.184,2.73,5.538,2.974-.433-2.426-.414-4.048,1.973-4.608,2.494-.583,2.908,1.914,4.323,2.348,1.578.482,3.252-.193,4.581-.34a3.3,3.3,0,0,0,2.588.688,7.913,7.913,0,0,0,2.806-1.375c2.188-1.3,2.474-2.938,5-2.025,1.186.427,1.6,2.748,3.878,3.078,6.1.889,5.817-3.964,9.23-6.875a6.717,6.717,0,0,0,1.911,5.723c4.7-4.094,3.341-.877,8.125-.548,1.728.118,4.17-2.231,5.585-1.809,2.7.806-.12,2.421,1.479,3.365,2.325,1.372,8.913-1.81,11.059-2.27,4.335-.931,9.694-1.785,14.687.883l-.766-4.465c3.765,5.161,8.446,4.05,13.978,3.651,2.539-.184,11.4,1,12.806-1.776,2.274,2.792,1.386-.219,3.934-.463,2.237-.215,3.682,2.034,6.7.967C730.379,494.766,735.57,488.5,731.54,484.892Zm103.449,4.277c2.736-7.687.206-9.365-7.443-8.682-7.215.645-14.7,1.426-21.766,1.783-7.544.38-16.375-.528-24.448-.237-9.221.333-18.43.967-27.642,1.5,1.977,3.466,5.267,5.774,7.333,9.167,1.356-4.576,6.349.118,9.336.539,4.821.68,10.119-.611,15.017-.295,3.428.22,4.279-1.13,7.323-1.625a3.437,3.437,0,0,1,1.932.983q.827,1.1,1.985-.127a8.186,8.186,0,0,1,2.7-1.254,1.684,1.684,0,0,1,1.795.717c1.733-.038.321,2.346,3.411.275-1.227-.836-2.827.473-2.735-1.831,1.982.345,1.987-1.213,3.5-1.543a3.381,3.381,0,0,0,1.569-1.224,5.736,5.736,0,0,1,1.417,1.338c3.285.406,7.366,1.226,10.934,1.742C821.963,490.795,833.639,492.961,834.989,489.169Zm191.647-117.663c-.77,2.957-1.475,5.933-2.32,8.87-5.359,18.666-5.359,38.272,1.194,56.617,2.968,8.311,9.509,25.184,21.24,20.476,14.4-5.778,9.7-26.079,6.68-37.283C1048.78,402.947,1038.446,384.951,1026.636,371.507ZM223.331,391.046c-8.853-1.81-16.3-2.192-23.988,3.314-12.869,9.215-16.946,27.476-14.889,42.421,1.973,14.329,13.989,27.366,28.166,16.712,6.923-5.2,13.35-14.209,16.573-22.183,4.008-9.92,1.714-20.876,1.088-31.183-.278-.009-.027-6.268-.306-6.752C228.785,391.308,225.41,391.472,223.331,391.046Zm408.057,46.419c-1.366-8.071-17.168.922-20.292.451-1.737-.262-2.473-2.8-5.454-2.839-4.226-.054-8.775.937-13.021,1.178-4.822.274-9.611.263-14.421.354-2.925.055-5.555,2.083-8.017,2.167-1.448.05-2.048-1.379-3.443-1.514-1.072-.1-2.04.59-3.061.651a59.782,59.782,0,0,1-6.944-.218c-7.8-.4-16.21.848-24.027,1.258-7.609.4-15.268.5-22.865,1.05-5.875.426-10.566,2.641-16.359,2.215a102.426,102.426,0,0,0-22.672,1.251c-6.216.946-12.3.4-18.477.961-2.8.257-4.323,2.639-6.507,2.97-1.771.27-3.035-1.249-5.058-1.563-6.154-.953-12.488,3.094-18.781,2.327,1.972,5.273,5.979,7.326,11.885,7.383,2.986.029,5.56-1.536,8.546-1.725,3.027-.191,3.6,1.054,5.663-2.044.126,2.165,2.063,4.348,4.486,3.489.778-.275,1.165-1.825.389-1.6.144-.041.238-1.861,1.47-1.172,1.358.76-.274,2.607,1.07,3.526,2.433-1.18,5.165-1.049,7.8-.98-3.088-.081,3.839-.8,4.642-.433l.026.014.262-.164c1.194-.775,2.4-1.765,3.719-1.792l.306.011c1.341.13,2,2.032,3.285,2.18,1.985.227,1.714-1.319,3.705-1.964.772-.25,2.274.766,3.049.885q2.245-1.685,2.655.163.271.665.587,1.307c-.488-.128,1.131.545,1.013.5.8.341,3.316.048,4.293-.134a67.686,67.686,0,0,1,8.625-1.485c2.93-.2,5.676-.569,7.856-2.753a21.311,21.311,0,0,0,.528,3.58l4.385-3.943h0l1.239,3.121c2.92-1.456,2.268-.223,3.853-.312a31.717,31.717,0,0,0,5.876-.855c2.828-.659,6.109.6,8.785-.073,1.718-.434,2.372-2.534,3.463-2.8,3.188-.772,1.826,2,4.144,2.536,1.736.406,2.423-1.078,4.169-1.41,2.046-.391,3.379.686,5.486-.263A15.992,15.992,0,0,0,551.76,449c1.271.113,2.13,2.152,3.409,2.648,2.007.78,2.376.346,4.253.021,3.86-.668,5.621-.731,7.294-4.322,2.046,1.593-.244,2.976-.335,4.77-.106.268,12.121-5.995,13.55-7.341l.034-.036-.032.1c-.751,2.219-1.775,6.182,1.544,6.572l.239.021c1.82.114,2.675-1.918,4-3.234,5.553-5.5,5,2.746,10.462.954,2.385-.783,2.172-2.953,5.491-2.024,1.857.519.209,1.652,2.643,1.742.742.027,2.341-1.408,3.323-1.521.644-.075-.1,2.134,1.444,1.864,1.007-.177,2.007-2.255,2.967-2.209,1.82.085.276,1.324,1.354,1.919,1.2.661,2.578,1.979,4.051,2.716q.157-1.64.313-3.28c.384.326,2.035,2.644,2.523,2.388.154-.08,3.458-2.5-.24-1.48.63-2.911,3.741-4.018,5.952-5.457-1,7.924,4.813,1.51,6.442,7.439,1.838-1.324,1.909-2.632,2.045-4.758,3.23,1.367,5.2,3.94,8.858,3.209,2.164-.433,1.436-2.561,4.927-1.439,2.565.823,2.893,2.846,5.652,1.479a13.827,13.827,0,0,0,3.672-4.629h0l.1.289c1.807,4.808,7.777,3.7,11.9,3.422l.24-.016c4.37-.265,6.993,2.133,9.161-1.264,1.735,2.121,11.464,4.887,8.548-.236,5.919,2.441,11.879,2.43,18.083,1.424.871-.142,2.43-.958,3.3-.746,1.263.309,1.108.949,1.838,1.2.6.2,1.034.987,2.042,1.23,1.118.269,2.59-.5,3.688-.684,2.662-.451,6.188-1.51,8.916-1.084,2.77.433,3.409,1.323,6.309,1.012,3.8-.406,5.6.519,6.427-3.833,1.836,1.578-.292,2.117,2.354,3.521,1.764.935,5.409.665,7.35.49a1.868,1.868,0,0,0,1.47-1.388,2.573,2.573,0,0,0,2.574.772c1.783-.692,1.939.492,2.7-2.255,3.479,3.666,5.1.687,8.9.522,3.591-.156,3.43,2.776,6.266,3.108-.224-.026,2.184-1.653,2.088-1.6,4.1-2.185,3.115-3.959,6.637-1.289,3.7,2.8,1.723,1.163,6.3.253,4.364-.87,15.7,5.33,16.693.38,4.085,4.757,7.79-.728,11.392.363.664.2.782,1.9,1.9,2.028,1.286.143,1.32-1.05,2.109-1.051,2.171,0,1.676-2.009,4.315,1.21,2.438-2.607,2.543-3,5.011-2.607,2.581.406,5.364,3.559,9.139,2.282a3.986,3.986,0,0,1-2.583-2.4c2.51-.544,1.333,1.367,2.37,1.458a47.91,47.91,0,0,1,5.292.687c3.277,1.063,7.633-.657,8.59-4.146,1.24-4.526-1.424-3.441-4.571-4.386-.283,2.6,2.257,5.488-1.614,6.4h0L841.8,441.86c-2.8,1.716-3.346.388-5.994.4-3.153.017-5.179,2.106-8.174,2.487.537-1.973,1.963-3.073,3.367-4.418-5.553.916-10.979-1.043-16.472-1.473q.566,1.868,1.127,3.736c-3.56-3.967-9.37-4.105-14.29-4.141-4.564-.033-9-.7-13.544-.842-5.439-.166-10.93.589-16.38.266-3.036-.18-5.924-.839-8.978-.759-3.962.1-2.438.4-4.69,2.421l.039-.038,0-.011c-.047-.379-3.442-2.747-4.129-3.015l-.063-.02c-2.223-.513-4.793.055-7.015.182a96.378,96.378,0,0,1-14.763-.627,272.315,272.315,0,0,0-36.455-1.1c-11.844.484-23.823-.728-35.588.632C650.649,436.6,639.616,431.835,631.389,437.465ZM805.629,449.7q-3.233-4.017,2.227-3.663Q809.092,450.252,805.629,449.7ZM625.585,383.509c-24.461.08-49.258-1.173-73.63,1.256-11.86,1.182-23.811,1.547-35.714,2.227-3.717.214-18.725-.239-20.085,4.589-3.417-3.93-3.532.38-4.417,3.29-2.379-6.827-9.874.367-12.619,3.391.4-.439,5.749,2.386,6.6,2.5,2.211.3,4.843-.243,6.9-.4a5,5,0,0,0,1.688,1.02q1.112.7,1.222-1.359l.55-1.637a2.676,2.676,0,0,0,2.248.123c3.115-.651,3.281.375,5.987,2.147q1.039-1.612,2.076-3.226l1.684,2.973c2.133-5.575,3.517-2.071,7.094-.708,4.132,1.572,7.92-.737,12.074-1.038a7.834,7.834,0,0,1,3.113.152,4.263,4.263,0,0,1,3.887,1.543c.885-.128,2.383-2.262,3.417-2.576,2.367-.716,3.345.591,5.356-1.551q-.363,1.652-.728,3.306c2.167-1.064,6.563-1.454,7.527-3.505l-.007.012-.019.045c-.274.6-1.731,3.965-1.314,4.262l.057.02c1.871.172,3.277-3.476,3.4-4.786,4.2,6.213,17.922,1.427,23.788,1.755,5.162.288,9.29,1.085,14.241-.52,1.875-.61,3.542-1.843,5.03-1.106s-1.132,2.8,1.9,3.225c-.86-5.481,3.826-4.712,7.376-3.208l-3.7.451c3.713,2.834,5.151-.185,8.763-.431,1.956-.134,2.952.45,4.379-.1.274-.106-.385-1.666.541-1.856,1.625-.333,2.5.458,3.824,1.057,3.357,1.519,4.611,3.2,8.589,3.007,4.14-.2,6.9-1.21,11.046-.409a28.735,28.735,0,0,0,8.985.807c7.592-.648,13.9.421,21.3-2.32-.185,3.834,6.432,2.009,8.5,2.045,1.253.02,1.894.866,3.077.844a15.923,15.923,0,0,0,2.807-1.009c.266-.1,2.515-.436,2.469-.429.189-.031.482-1.873.957-1.745,2.315,3.13,3.263.9,6.185,1,2.345.076,4.505,2.021,6.9,2.332,3.472.452,7.067-1.041,10.587-.857,2.032.1,5,1.788,6.169,1.771,2.134-.031,1.64-1.981,4.319-1.753,1.731.148,3.937.759,5.639.894.047,0,2.465-.522,2.71-.533q1.088,2.658,2.575.389a5.29,5.29,0,0,0,1.329-2.9c3.472,5.2,13.851,1.876,18.827,1.427,7.018-.632,13.009,2.148,18.663-2.839.1.776,1.045,4.112,2.052,3.964,1.17-.17.145-3.554.177-4.061,1.866,1.243,3.8,2.654,6.118,2.755,1.52.068,2.727-1.017,4.143-1.093-.3.016,2.684.422,1.621.835,1.775-.689,3.856-5.036,1.168-6.449-2.006-1.057-1.115,1.282-2.615.958-1.308-.283-3.179-2.864-4.891-3.64-4.622-2.092-10.524-1.13-15.45-1.138-25.278-.039-50.537-1.063-75.81-.971a142.042,142.042,0,0,1-16.875-1.089c-4.733-.543-7.748.725-12.346,1.4-5.172.76-10.5-1.32-15.579-2.062C636.165,383.2,630.882,383.492,625.585,383.509ZM554.4,393.692c4.476,3.025,2.248-1.9,5.966.372a20.419,20.419,0,0,1-3.423,2.925C555.009,398.008,553.433,395.025,554.4,393.692ZM611.67,323.82c-7.671-1.553-8.581,1.327-9.085,8.765-.525,7.759-1.8,14.257-9.326,18.224-5.164,2.72-8.362,2.886-9.522-2.965L565.842,351.7c10.524,15.615,34.847,23.059,52.447,23.368,10.915.193,22.09.005,32.628-3.175a68.428,68.428,0,0,0,12.956-5.709c.96-.522,10-4.9,9.9-6.456-.137-2.066-6.666-1.24-7.921-1.351-3.238-.286-5.986-1.707-8.912-3.027-5.69-2.569-11.529-5.311-15.909-9.9-4.307-4.517-5.363-9.024-5.827-14.959s-2.493-6.807-8.254-6.649C621.553,323.993,617.025,324.9,611.67,323.82Zm110.183,29.842c-5.424.269-13.134-1.3-18.293-.051-1.252.3-1.51,1.29-2.815,1.566-1.527.322-.806-2.5-3.179-.379-2.6,2.327-2.862,6.049-4.641,8.884,1,.312,2.319-.78,2.839-.645.393.1,2.931,1.125,3,1.118,2.6-.241,3.583-1.31,5.029-3.463,3.634,3.23,7.887,4.147,12.671,4.02,3.585-.1,7.023-2.011,10.259-1.521a2.169,2.169,0,0,0,.989,1.549,10.159,10.159,0,0,0,3.438.054c2.327.024,4.416-.452,6.768-.2,3.032.329,5.784,1.835,3.98-2.591C738.9,354.656,728.135,353.352,721.853,353.662Zm-177.607,5.617c-1.589,7.257,6,3.2,4.975.236C547.7,361.386,545.856,359.99,544.246,359.279Zm-5.822.4c.346,3.547,1.133,4.562,4.478,2.795l-.728-1.117C540.337,362.589,540.058,359.714,538.424,359.683Zm16.226.907a3.567,3.567,0,0,0-4.717.452C549.919,361.038,558.031,362.876,554.649,360.59ZM575.7,313.34a13.492,13.492,0,0,1,.93,3.551q-.836.728-1.668,1.455C573.3,316.215,574.436,315.353,575.7,313.34ZM478.56,287.982c-2.952-3.55-6.046-.126-2.279,2.841-7.722,2.918-3.7,18.784-3.7,24.772,2.8-2.085,1.1-3.931,2.091-6.664.457-1.261,1.563-1.969,1.566-2.89,0-1.219-2.922-3.977-1.252-4.4C479.59,300.456,481.4,291.4,478.56,287.982ZM635.3,221.307c-5.44-5.18-15.186.683-21.053,2.142-8.39,2.088-16.752,3.6-25.015,6.209-5.93,1.873-13.443,2.981-16.354,9.215-3.074,6.582.352,16.253-4.7,21.958-2.539,2.869-13.329,3.239-12.177,8.893.814,4,7.531,1.787,10.321,2.37,8.248,1.72.471,8.008,2.992,12.476.975,1.729,1.634.688,2.8,1.424a10.713,10.713,0,0,1,3.132,2.539c2.313,2.767,4.116,6.3,6.9,8.634,21.213,17.8,61.7,26.255,82.849,3.931,5.23-5.521,10.89-13.924,8.258-21.526-1.69-4.883-1.239-5.55.7-10.66,1.965-5.194,2.874-10.268,1.834-15.79-.787-4.172-4.269-8.189-4.7-12.195-.445-4.133,1.677-3.872,4.992-4.706,6.506-1.637,17.211-5.051,20.805-11.3-6.477-1.375-13.377,3.994-19.554,5.241a73.517,73.517,0,0,1-20.33.709,96.364,96.364,0,0,1-19.623-3.124C631.789,226.1,626.91,223.171,635.3,221.307ZM479.984,300.843c-1.16,1.278,2.967,6.161,2.012,6.485-1.477.5-2.438,4.787-2.438,6.633.49-1.855,1.783-2.442,3.415-1.337,3.073,2.078,1.312-2.336.877-3.619-.257-.756-1.428-1.687-1.819-2.671C481.168,304.151,482.934,302.532,479.984,300.843Zm137.854,4.678c-7.779-1.683,5.473-11.626,9.458-4.879C630.456,306,621.336,306.277,617.838,305.521Zm6.945-57.263.2,0c2.63.2,3.749,7.322,4.566,9.4,3.161,8.039,9.5,16.662,8.252,25.722-.386,2.8-1.774,7.164-4.123,8.876-3.122,2.277-8.512.815-6.072-3.9,2.851-5.5-1.38-11.742-3.088-16.939-1.586-4.82-2.937-10.021-2.821-15.128.039-1.694.263-8.257,3.285-8.032ZM465.91,264.943c-1.414.973-1.843,2.888-2.464,4.356-1.508-4.967-3.6-.994-3.8,1.762,5.221-.319,9.791,1.564,11.308,6.946.622,2.2,1.21,4.412,1.813,6.618C480.163,276.535,468.291,272.409,465.91,264.943ZM587.781,250.76c3.349,3.823,1.521,11.867,7.5,13.528,4.846,1.346,6.492-4.071,8.688-7.264,3.108-4.521,6.884-5.062,6.417,1.418-.3,4.169-3.017,8.836-5.227,12.315C595.328,286.24,579.323,262.12,587.781,250.76Zm-177.9-73.186c-.855,1.649-2.969,1.932-4.453,2.727a3.016,3.016,0,0,0-1.571,2.063,2.673,2.673,0,0,0-1.754-.417,43.528,43.528,0,0,0-10.308,5.041c-9.07,5.844-18.1,11.978-24.717,20.69-11.593,15.267-12.359,36.666,1.986,50.408,22,21.074,60.6,15.369,88.1,13.376,2.175-6.025,2.443-10.733-5.14-10.361.353-.017-2.887-3.583-3.659-3.908-.758,1.91-1.451,3.845-2.137,5.781-.657-2.96-.664-5.849-3.542-7.536-3.539-2.074-4.656.381-7.615,1.274-2.015-3.931.262-1.779-3.058-2.978-.59-.212-3.328-.65-4.857-1.2-2.015-.726-9.873-4.195-7.183.92-4.07-.68-5.91-4.328-7.609-7.641-3.9,3.6-5.8-.464-9.851-1.144.174,1.543,2.158,3.23.9,4.842-4.357-3.826-6.47-9.477-10.543-13.55-4.174-4.176-3.886-4.744-3.057-10.447-3.689-.384-1.168,7.7-4.487,2.3-1.352-2.2-2.1-4.863-3.614-7.16-2.852-4.317-3.544-13.04,3.557-9.8.937-3.529,1.067-7.563,1.8-11.2,2.773.751,2.927,3.887,5.213,5.192,1.893-6.1.564-9.4-1.316-14.959,3.462,1.059,7.185,3.221,8.966,6.508-.206-4.373-1.915-5.575-4.306-8.883,3.629-.729,9.708,2.8,10.326-3.032h0l2.22,2.588A52.87,52.87,0,0,1,409.883,177.574Zm240.157,71.275c3.867-2.736,5.244,4.782,5.407,6.821.655,8.23-6.849,22.143-16.23,13.789a17.824,17.824,0,0,1-6.259-13.2c-.005-2.582.365-7.412,4.041-6,3.021,1.158,7.342,15.906,11.829,6.4C649.753,254.69,648.1,250.223,650.039,248.849Zm-209.829,17.5c.68-1.142,3.619-.246,4.848-.041C446.065,266.476,442.008,267.822,440.21,266.348ZM689.578,70.238c2.469,2.328,9.286,2.036,8.5,6.625q2.257-.769,4.516-1.542c-.261,4.973,4.6,6.179,7.5,9.315,2.828,3.061,4.652,7.364,9.436,4.327.778,8.039,10.588,7.025,12.336,12.39.609,1.868-1.569.085-.326,3.095.266.644,3.091,2.612,3.657,3.041,3.21,2.436,2.672,2.607,5.55,1.15.77,2.37,1.275,5.675,2.846,7.666a20.048,20.048,0,0,1,2.341.923c.725.573-.767,2.335.5,2.841.694-1.489,1.241-3.094,2.612-4.129,1.118,1.97-.922,2.287-.617,4.167.419,2.582,2.125,3.729,3.424,5.782,1.731,2.736,2.595,8.349,6.692,5.6,0,4.553-.495,8.208,1.747,12.361,1.859,3.446,4.512,6.5,6.6,9.813,6.422,10.218,5.681,25.024,4.762,36.647a148.134,148.134,0,0,1-2.4,18.6c-1.011,4.954-2.435,11.817,2.215,15.456-4.33.988-4.5,4.518-6.849,7.537-2.222,2.854-7.152,4.863-6.5,9.19-4.686-1.966-11.449,6.157-14.5,8.737-3.072,2.6-5.982,6.236-9.544,8.131-2.95,1.568-6.485,1.62-8.921,4.184,4.776.522,9.886-2.488,14.072-4.369,5.827-2.619,11.806-4.853,17.611-7.533,12.116-5.6,24.829-11.331,34.456-20.836,18.275-18.045,20.855-44.2,13.174-67.782-7.4-22.715-20.6-44.07-39.3-59.121-20.53-16.524-45.894-26.565-71.493-31.937A30.916,30.916,0,0,0,689.578,70.238Zm-268.6,185.529c1.331.988-.629,3.956-.988,5.006l-2.309-2.407ZM642.5,220.085c-.883-1.635-5.435-2.59-5.718.055C636.571,222.114,641.622,220.741,642.5,220.085ZM583.817,96.5c-1.036-6.418-4.466-6.507-7.008-1.118-2.477,5.246-.7,12.792-.325,18.429.271,4.092.318,11.988,4.9,13.988-3.6.4-2.764,3.344-3.184,5.918-.681,4.179-2.354,7.831-3.865,11.757-1.051,2.737,1.125,3.926,3.358,4.539,2.262.621,3.015.239,4.593,1.24,4.174,2.647,6.876,5.555,11.936,7.249a80.578,80.578,0,0,0,17.244,3.478c3.51.349,9.412,1.775,11.337-1.692-.423,3.91-.054,2.544,2.544,1.831a6.778,6.778,0,0,0,3.328-2c1.4-1.881.232-4.066,1.739-6.021,1.118.695.268,3.185.17,4.077,5.858.1,3.672,4.155,7.8,6.194,3,1.479,3.608-.9,6.177-.741,2.529.152,2.186.97,3.789,2.652,1.525-1.646.381-7.932,5.227-5.259,2.282,1.26.875,4.771,4.611,5.98,3.1,1,6-.6,8.8-.4a38.136,38.136,0,0,1,8.344,1.72c11.635,4.3-11.562,19.282-15.595,23.241,8.028-.952,15.166-6.452,21.541-11.014,2.734-1.956,5.477-3.8,8.278-5.637,1.163-.762,3.348-1.688,4.146-2.922,1.051-1.625.522-2.8.717-4.341l.029-.2-.062.027a.359.359,0,0,1-.083.011l-.095-.007c-.079-.465.11-3.1.534-3.284.06.324.137.644.228.96.371.313,2.269-2.454,2.313-2.682-3.953.185-2.024-2.247-2.22-4.417.014.163-.858-4.757-.152-3.674l-.012-.016-.194-.272c-1.2-1.536-2.9-1.457-4.254-2.578l-.234-.211c-.889-.869-.844-2.223-1.637-3.042-2.642-2.734-2.976-.232-6.062-1.008-2.98-.748-4.038-10.016-6.923-4.2-2.143-5.487-1.139-1.6-4.26-1.9-2.821-.274-3.049-2.278-5.364-3.409a3.246,3.246,0,0,1-4.04-.41,16.434,16.434,0,0,0-3.655-1.168c-2.2-.317-3.878,1.311-4.838,1.38-2.389.172-.614.014-2.8-1.926-2.429-2.162-4.266-3.607-8.087-4.323a2.033,2.033,0,0,1-2.988-.923,11.327,11.327,0,0,0-2.911,1.59,13.844,13.844,0,0,0-3.7-.86q-2.459-.181-1.52-2.315c-1.714-.61-3.851-.169-5.445-1.14-1.418-.863-2.031-3.134-3.727-4.172-3.716-2.273-9.437-2.07-13.582-3.37q-3.1,1.557-4.1-1.565a32.651,32.651,0,0,0-1.978-3.3c-1.233-1.539-1.887-2.407-3.835-3.167.347.942,2.493,6.3-.707,5.171-2.1-.742.63-3.586-2.62-3.936,2.347-2.9,1.634-5-1.658-7.307-.457-.32-4.061-2.433-4.8-1.05-.48.9.957,2.5,1.207,3.225-3.752.17-4.106-3.858-5.028-6.538-2.234,2.637-3.38,3.4-2.8-.066C582.671,99.83,584.223,99.017,583.817,96.5ZM430.006,172.136c-2.645.218-3.989,2.245-6.356,2.774-1.71.383-3.569-1.039-5.092.029-1.822,1.279-7.66.606-8.665,2.616,1.191,1.9,5.092,4.385,7.455,3.711,2.611-.743,2.078-1.619,1.815-4.39,3.026,2.3,4.05,4.775,7.014,1.739.354-.362.147-1.872.545-2.5C427.889,174.268,429.27,174.488,430.006,172.136Zm39.674-1.365c-1.5-6.3-15.008-2.454-19.056-1.628-3.447.7-6.98.5-10.47.705,2.531,2.037,3.119,5.789,7.018,5.128,1.758-.3,2.734-2.151,4.61-2.4,1.676-.225,3.417.9,4.922,1.4-2.562-5.576.626-.482,2.6-.36,2.8.173,4.525-2.392,5.92-4.385.838.957,1.79,3.782,3.117,4.187,1.013.308,1.625-.439,2.024-.354,1.532.322.728-3.813,2.989.9.143-2.416-.067-4.722-1.936-6.461C470.954,167.057,469.95,170.615,469.68,170.772Zm-32.257-.164a20.619,20.619,0,0,0-4.2.472C436.9,178.427,439.99,170.853,437.423,170.608Zm51.045,1.038c3.747-3.221-3.641-2.67-5.381-1.936l2.649,4.184Q487.114,172.785,488.468,171.646Zm-8.619-3.967c-.9-.41-4.445.111-4.73,1.4-1.168,5.292,3.251,4.722.812.794l4.9,2.319C481.237,170,482.051,168.68,479.849,167.68Zm17.723.363c-1.736,0-5.649,1.038-6.681,2.514-2.569,3.672,5.228-.863,5.076-.832h0Zm154.362-5.263c-2.427,3.349.893,2.986,2.078,3.87Zm-11.468-5.89c1.973.064,3.16,1.648,2.116,3.755q-.387-.36-.776-.718A5.386,5.386,0,0,1,640.467,156.89Zm39.146-1.815c-1.595-.728,2.747-3.663,4.408-.507,1.078,2.047-1.57,4.652-2.882,6.077C681.183,158.627,682.158,156.239,679.612,155.075ZM625,131.858c.1.623,1.614,8.246-1.553,5.762C621.848,136.365,624.53,132.752,625,131.858Zm-4.035,0q.363.947.727,1.891a17.6,17.6,0,0,1-1.463,3.116C618.109,135.474,619.682,133.046,620.965,131.858Zm-29.223-18.774,1.164,2.271a24.185,24.185,0,0,1-2.673,3.987C587.72,117.707,590.161,114.352,591.742,113.084Zm146.875-12.516c1.527,1.5,2.406,1.848,1.766,3.755C739.023,103.306,737.171,101.9,738.618,100.568ZM589.472,86.054c.508-1.087,2.433-7.563-.338-5.056-1.105,1-1.432,2.278-2.742,3.082h0l0,0-.014.006c-4.778,1.192-1.594,5.492.332,8.51l.1.163c.906-1.254.561-7.239-.108-8.475l0-.006Z" transform="translate(0)" fill-rule="evenodd"/>
    </g>
  </g>
</svg>
